<?xml version="1.0" encoding="UTF-8"?>
<svg id="Capa_2" data-name="Capa 2" xmlns="http://www.w3.org/2000/svg" viewBox="0 0 104.84 41.37">
  <defs>
    <style>
      .cls-1 {
        fill: #832192;
      }

      .cls-2 {
        fill: #681477;
      }

      .cls-3 {
        fill: #6a1779;
      }

      .cls-4 {
        fill: #fb7476;
      }
    </style>
  </defs>
  <g id="Capa_1-2" data-name="Capa 1">
    <g>
      <path class="cls-2" d="M.02,17.9c.34.07.29-.17.4-.37C5.3,8.29,19.09,5.89,28.53,8.08c6.88,1.6,9.99,5.06,10.27,12.14.01.27-.15.57.28.49-1.76,4.28-2.39,6.78-5.64,10.42-1.55.76-2.98,1.71-4.56,2.42-7.35,3.3-15.33,3.77-21.18-2.56-3.05-3.31-3.42-5.26-1.5-9.39,3.5-7.53,11.93-11.22,19.9-8.56,3.6,1.2,6.57,4.86,5.75,8.83-.4,1.94-4.8,5.31-6.67,5.87-3.2.95-8.17-.12-9.73-3.37-1.78-3.72,4.27-7.44,5.09-3.39.13.65.05,1.21-.42,1.71-.25.26-.83.42-.9.65-.13.4.05.81.48.89.24.04,1.76-.12,2.07-.18,2.63-.47,4.09-1.89,3.34-4.67-1.27-4.75-9.86-2.98-12.09.3-5.22,7.67,4.55,11.57,10.76,11.31,6.03-.25,11.29-4.54,10.79-10.92-.65-8.29-11.48-9.68-17.98-9.22-7.58.54-12.09,7.55-13.98,14.2-.06.23-.04.5-.33.59C.64,23.05.2,20.92.02,17.9Z"/>
      <path class="cls-4" d="M33.44,31.13c-2.15,2.41-10.45,9.24-13.36,10.1-1.51.45-2.58-.28-3.83-1.03-4.1-2.46-11.39-10.47-13.97-14.56.29-.09.26-.36.33-.59,1.89-6.65,6.4-13.66,13.98-14.2,6.5-.46,17.33.93,17.98,9.22.5,6.38-4.76,10.66-10.79,10.92-6.21.26-15.98-3.64-10.76-11.31,2.23-3.28,10.82-5.05,12.09-.3.75,2.79-.71,4.2-3.34,4.67-.32.06-1.83.22-2.07.18-.43-.08-.62-.49-.48-.89.08-.23.66-.39.9-.65.48-.5.56-1.05.42-1.71-.82-4.04-6.87-.32-5.09,3.39,1.55,3.24,6.52,4.32,9.73,3.37,1.87-.56,6.27-3.92,6.67-5.87.82-3.98-2.16-7.63-5.75-8.83-7.97-2.66-16.4,1.03-19.9,8.56-1.92,4.13-1.55,6.08,1.5,9.39,5.84,6.32,13.83,5.86,21.18,2.56,1.58-.71,3.01-1.66,4.56-2.42Z"/>
      <path class="cls-4" d="M39.08,20.71c-.43.08-.27-.22-.28-.49-.28-7.08-3.39-10.54-10.27-12.14-9.43-2.2-23.22.2-28.11,9.44-.1.2-.06.45-.4.37-.18-2.99.77-6.53,2.28-9.2C6.09,2.06,18.05-1.5,22.37,6.49c4.74-5.01,12.13-7.73,16.96-1.17,2.34,3.17,2.54,5.93,1.98,9.81-.36,2.5-1.39,3.5-2.24,5.58Z"/>
      <path class="cls-3" d="M61.21,29.09c.09-.28,1.38-.29,1.53-.19s.17,1.11.51.97c.24-.1.72-.7,1.2-.91.96-.42,1.98-.45,2.92.04.36.19.81.88,1.1.88.17,0,.96-.76,1.34-.92,1.88-.83,4.04-.1,4.76,1.87.42,1.15.49,5.04.33,6.3-.06.47-.17.57-.63.63-.43.06-2.07.11-2.26-.29-.32-.65.07-3.94-.08-4.99-.2-1.4-2.13-1.39-2.35-.12-.19,1.05.22,4.59-.18,5.17-.3.43-2.26.22-2.81.08v-5s-.25-.77-.29-.83c-.39-.58-1.71-.39-2,.23-.38.82.05,3.91-.12,5.1-.04.25-.19.64-.48.64h-2.26s-.21-.2-.21-.21v-8.45Z"/>
      <path class="cls-3" d="M59.24,9.38c.09-.3,1.15-.27,1.41-.14.33.16.3.84.63,1.06,1.02-1.3,2.92-1.73,4.35-.82.31.2.71.81,1.01.83,1.49-1.99,4.85-1.7,5.88.6.07.17.4,1.07.4,1.15v5.77s-.2.21-.21.21h-2.4s-.25-.22-.28-.28c-.38-.82.16-3.94-.1-5.11-.19-.85-1.29-1.08-1.94-.59-.92.7-.08,4.81-.57,5.98h-2.61s-.21-.2-.21-.21v-5.07c0-1.07-2.24-1.55-2.4.27-.09,1,.23,4.1-.07,4.72-.03.07-.26.28-.28.28h-2.4s-.21-.2-.21-.21v-8.45Z"/>
      <path class="cls-3" d="M85.32,10.29c.18-1.11,1.02-1.48,1.98-.89-.2,2.95.25,6.22,0,9.13-.27,3.07-2.91,4.18-5.7,3.85-.61-.07-2.47-.59-2.45-1.3,0-.15.72-1.81.8-1.86.4-.28,1.41.52,1.94.61,1.49.26,2.64-.28,2.43-1.94-3.7,1.37-6.79-1.04-6.33-4.98.42-3.53,4.79-5.29,7.31-2.62ZM82.61,11.73c-2.45.29-2.14,4.1.51,3.76,2.26-.28,1.87-4.04-.51-3.76Z"/>
      <path class="cls-3" d="M46.34,18.04c-.09-.03-.23-.22-.21-.34l5.94-12.8c.14-.36.83-.6,1.01-.2l6.02,13c.03.12-.16.34-.21.34h-2.68c-.13,0-.94-1.65-.93-1.96h-5.11c-.41.14-.76,1.96-1.15,1.96-.58,0-2.28.12-2.68,0ZM51.34,13.53h2.54c.08-.38-1.04-3.06-1.2-3.1-.28-.07-.2.13-.27.28-.18.39-1.25,2.63-1.06,2.82Z"/>
      <path class="cls-3" d="M50.39,27.09c-.56.59-.06,1.38.48,1.77,1.54,1.12,4.7,1.75,5.09,4.07.7,4.19-3.3,5.74-6.76,4.64-.51-.16-1.92-.79-2.06-1.33-.1-.35.81-2.06,1.06-2.14.46-.15,1.34.61,1.84.8,1.27.48,3.1.46,2.51-1.38-.24-.76-2.92-1.78-3.7-2.35-3.73-2.72-1.39-7.28,2.99-7.07.72.03,3.65.93,3.86,1.65.12.41-.88,2.03-1.21,2.13-.84.26-2.98-1.97-4.09-.79Z"/>
      <path class="cls-3" d="M87.27,28.9c.09.05.32.78.31.96.62-.25.91-.77,1.59-1.01,2.11-.76,4.33.32,4.83,2.55.28,1.25.35,4.3.2,5.57-.02.22-.09.59-.28.7-.29.17-2.56.18-2.75-.21-.37-.77.16-4.09-.1-5.25-.23-1.03-2.11-1.03-2.34,0s.27,4.9-.24,5.39c-.23.23-2.53.24-2.77-.06-.42-.53.04-7.27-.11-8.44.1-.34,1.52-.29,1.65-.21Z"/>
      <path class="cls-3" d="M91.91,9.06c6.46-1.01,7.45,8.62,1.22,9.24-5.73.57-6.86-8.36-1.22-9.24ZM92.62,11.73c-2.81.32-1.75,4.66.82,3.65,1.97-.78,1.17-3.87-.82-3.65Z"/>
      <path class="cls-3" d="M79.93,28.63c5.79-.46,6.66,8.5,1.07,9.25-6.48.86-7.33-8.75-1.07-9.25ZM79.78,31.45c-2.63.54-1.09,4.91,1.36,3.47,1.75-1.04.87-3.92-1.36-3.47Z"/>
      <path class="cls-3" d="M100.55,11.84c.1.14,2.25.92,2.7,1.18,2.87,1.69,1.55,4.94-1.51,5.28-.67.08-3.62-.24-3.84-.92-.14-.4.57-1.91.93-2,.25-.06,3.02,1.23,3.01.19,0-.44-2.16-1.16-2.64-1.45-2.39-1.46-1.66-4.72,1.03-5.08.83-.11,3.64.1,4.14.78.25.34-.47,1.82-.69,1.96-.41.25-1.16-.24-1.66-.32-.28-.04-1.81-.14-1.44.38Z"/>
      <path class="cls-3" d="M59.8,37.61c-.45.18-2.96.33-2.96-.21v-8.31s.2-.21.21-.21h2.54s.21.2.21.21v8.52Z"/>
      <path class="cls-3" d="M74.18,9.52c.16-.57,2.96-.48,2.96,0v8.31s-.2.21-.21.21h-2.54s-.21-.2-.21-.21v-8.31Z"/>
      <path class="cls-3" d="M75.27,4.69c2.27-.47,2.78,2.91.78,3.31-2.35.48-2.87-2.89-.78-3.31Z"/>
      <path class="cls-3" d="M57.79,24.4c2.54-.58,3.01,2.99.78,3.32s-2.54-2.92-.78-3.32Z"/>
      <path class="cls-3" d="M81.48,24.54c.52-.07,1.31,1.39,1.04,1.75-.12.16-3.21,1.61-3.54,1.7-.67.17-1.2-.97-.86-1.43.12-.16,3.16-1.99,3.36-2.01Z"/>
      <path class="cls-1" d="M68.4,21.84v-2.39c.16-.06.56.06.56.21v6.2c0,.45-.63-.06-.75-.05-.6.04-.81.65-1.89.29-2.81-.93-1.07-6.06,2.08-4.26ZM68.38,22.43c-.06-.09-1.1-.45-1.3-.44-2.19.1-2.26,3.96.26,3.64.55-.07,1-.32,1.08-.9.03-.26.03-2.21-.03-2.31Z"/>
      <path class="cls-1" d="M70.23,24.09c.19,1.1.9,1.69,2.03,1.54.25-.03,1.52-.77,1.35-.06-.04.17-.91.53-1.12.57-3.45.71-3.8-4.68-.5-4.59,1.88.05,2.22,2.54,1.69,2.54h-3.45ZM73.34,23.53c-.08-2.09-2.9-1.98-3.1,0h3.1Z"/>
      <path class="cls-1" d="M65.12,2.16c3.19-.72,3.93,4.07,1.07,4.58-3.07.55-3.51-4.03-1.07-4.58ZM65.69,2.58c-2.25.12-2.11,3.57-.04,3.64,2.53.09,2.21-3.76.04-3.64Z"/>
      <path class="cls-1" d="M71.22,2.83c-.11.11-2.23-.65-2.12.49.07.7,1.29.81,1.75,1.08,1.42.84.73,2.39-.83,2.38-.48,0-1.64-.28-1.48-.86.11-.12,2.5.87,2.53-.35.03-1.06-3.54-1.07-2.38-2.95.64-1.03,3.07-.36,2.52.2Z"/>
      <path class="cls-1" d="M60.51,6.21h3.1c.06.12-.12.42-.21.42h-3.45V.01c.16-.06.56.06.56.21v5.98Z"/>
    </g>
  </g>
</svg>