<?xml version="1.0" encoding="UTF-8"?>
<svg id="Capa_2" data-name="Capa 2" xmlns="http://www.w3.org/2000/svg" viewBox="0 0 121.03 54.71">
  <defs>
    <style>
      .cls-1 {
        fill: #fff;
      }

      .cls-2 {
        fill: #585858;
      }

      .cls-3 {
        fill: #616161;
      }
    </style>
  </defs>
  <g id="Capa_1-2" data-name="Capa 1">
    <g>
      <path d="M0,54.71v-8.88l.05-.14h9.8c1.52-.34,1.48-2.27,0-2.59H.08s-.08-.14-.08-.14v-3.69h10.08c3.76.31,5.84,4.82,3.18,7.68,1.59,1.71,1.58,4.44,0,6.15-.93,1.01-2.16,1.51-3.52,1.6H0Z"/>
      <path d="M121.01,50.81c-.5,4.84-9.21,5.03-11.6,1.11-.08-.13-.43-.79-.42-.88,0-.19,2.96-1.67,3.32-1.94.65,1.58,2.29,2.28,3.93,1.88.74-.18,1.25-.82.65-1.47s-3.17-1.12-4.13-1.54c-1.74-.74-3.06-1.86-3.15-3.89-.22-4.97,6.38-6.12,9.57-3.42.28.23,1.59,1.72,1.42,2.01l-3.18,1.78c-.13.01-.38-.55-.5-.71-.62-.79-2.11-1.26-2.97-.65-.92.64-.17,1.42.56,1.77,2.26,1.08,6.2,1.21,6.52,4.45.04.38.04,1.13,0,1.5Z"/>
      <path class="cls-1" d="M0,45.83v-2.87h9.87c1.66.36,1.66,2.51,0,2.86H0Z"/>
      <path d="M41.75,20.21c.04-.13.11-.24.2-.34l1.52-1.25c-2.78-5.8,5-10.1,8.54-4.78,1.94.23,3.92-1.38,4.03-3.34-1.69-1.89-2.14-4.39-.53-6.54,2.91-3.86,9.06-1.7,8.78,3.18-.21,3.83-4.22,5.78-7.48,3.92-.46,2.07-2.29,3.58-4.41,3.62,1.73,5.2-4.91,8.9-8.41,4.71-.52.43-1.08.87-1.7,1.32l-.2.05c-.67.56-1.3.91-1.76,1.69-1.87,3.13.88,6.86,4.41,5.98.95-.24,1.62-.87,2.37-1.46,9.31-7.3,18.3-15.03,27.58-22.36,3.55-2.51,8.23.52,7.28,4.82-.37,1.7-1.67,2.58-2.92,3.61l-.05.16c-.54.5-1.12.97-1.73,1.4,2.22,3.9-1.69,8.37-5.9,6.93-.35,2.5-2.57,4.32-5.14,4.04.82,5.86-7.63,8.02-9.51,2.3-2-6.08,7-9.16,9.23-3.22,1.8.51,3.82-.69,4.41-2.43.26-.76.26-1.19-.5-1.54-5.31-4.71,2.32-12.27,6.97-6.84l1.42-1.2c.12-.08.25-.12.39-.14.99-.81,2.01-1.38,2.52-2.64,1.37-3.42-2.11-6.63-5.41-5.14-10.08,7.79-19.78,16.11-29.83,23.93-3.78,1.97-8.02-1.66-6.55-5.72.5-1.37,1.34-1.85,2.38-2.71Z"/>
      <path class="cls-2" d="M42.09,20.76c.62-.51,1.23-1.04,1.88-1.51.18,0,.31.33.44.45,3.86,3.55,9.58-.34,7.79-5.16,2.21.07,4.13-1.53,4.51-3.69,1.22.69,2.45.99,3.84.66,4.33-1.02,4.93-7.07.92-8.94-4.31-2.01-8.59,2.81-6.09,6.84.17.27.77.87.79,1.06.07.69-.54,1.79-1,2.29-.67.72-2.16,1.41-3.14,1.23-.19-.04-.18-.2-.28-.34-3.14-4.09-9.15-1.78-8.7,3.24.06.63.34,1.18.54,1.76-.59.55-1.22,1.04-1.84,1.55-.2-.53-.5-1.01-.66-1.56-.79-2.62.08-5.07,2.07-6.84,4.09-3.65,8.82-6.85,12.95-10.48,4.8-3.62,11.5.68,10.13,6.57-.42,1.79-1.38,2.77-2.72,3.9-4.11,3.46-8.43,6.68-12.54,10.14-2.44,1.77-5.85,1.58-8.09-.44-.28-.25-.47-.61-.79-.75Z"/>
      <path class="cls-3" d="M78.64,12.49c-.61.49-1.19,1.02-1.82,1.5-.06.01-.55-.56-.68-.68-4.73-4.08-11.01,2.97-6.25,7.2.5.45.82.28.74,1.08-.18,2.02-2.48,3.67-4.46,3.24-.1-.02-.25-.02-.32-.1-.11-.13-.32-.74-.49-1-1.73-2.69-5.61-2.92-7.67-.46s-.98,6.58,2.19,7.58c3.5,1.12,6.82-1.9,6.19-5.47,2.52.42,4.99-1.45,5.12-4.03.43.04.83.23,1.26.27,3.93.35,6.56-3.6,4.7-7.07.6-.56,1.27-1.02,1.9-1.54,1.35,2.32,1.24,5.15-.38,7.3-.43.57-.96.98-1.5,1.44-4.09,3.48-8.44,6.67-12.54,10.14-6.84,4.73-14.22-4.52-7.82-10.14,4.25-3.73,9.02-7.1,13.36-10.75,2.8-1.77,6.42-1.1,8.47,1.46Z"/>
      <path d="M69.56,39.27l4,6.56,4.1-6.56h4.07v15.44h-4s-.1-.1-.1-.1v-8.09l-3.82,6.03c-.13.11-.44.06-.52-.1l-3.8-6.01v8.26h-4.1v-15.44h4.17Z"/>
      <path d="M108.91,54.71h-4.27l-2.87-4.99h-1.47v4.99h-4s-.1-.1-.1-.1v-15.33h7.35c.25,0,1.07.26,1.35.36,3.37,1.21,4.68,5.42,2.27,8.18-.43.49-.96.8-1.46,1.2l3.21,5.69Z"/>
      <path d="M45.3,49.18h-3.59s-.1-.1-.1-.1v-3.18h7.72v2.56c0,.81-.65,2.37-1.11,3.06-2.39,3.65-8.08,4.08-11.49,1.67-4.45-3.14-4.2-9.75.33-12.69,3.47-2.25,8.92-1.44,11.17,2.15l-3.25,1.82c-.12,0-.4-.42-.55-.55-1.25-1.11-3.52-1.26-4.97-.47-3.1,1.69-2.54,6.6.91,7.47,1.74.44,4.2.14,4.92-1.74Z"/>
      <polygon points="48.85 54.71 54.01 39.27 59.09 39.28 64.36 54.71 60.13 54.71 56.64 43.92 53.19 54.71 48.85 54.71"/>
      <polygon points="95.04 45.28 95.04 48.56 86.57 48.56 86.57 51.43 95.04 51.43 95.04 54.64 83.22 54.64 83.22 45.28 95.04 45.28"/>
      <path d="M27.74,45.35v3.21h-8.47v2.87h8.37s.1.1.1.1v3.07s-.1.1-.1.1h-11.62s-.1-.1-.1-.1v-9.26h11.82Z"/>
      <rect class="cls-3" x="15.92" y="39.27" width="11.82" height="3.69"/>
      <rect class="cls-2" x="83.22" y="39.27" width="11.82" height="3.69"/>
      <path class="cls-1" d="M3.42,51.43v-2.87h6.39s.53.17.6.21c.89.52.94,1.81.11,2.41-.05.04-.41.24-.44.24H3.42Z"/>
      <path class="cls-1" d="M100.3,42.89h2.63c.11,0,.66.28.78.38.87.73.74,2.47-.34,2.93-.1.04-.57.17-.65.17h-2.32s-.1-.1-.1-.1v-3.38Z"/>
    </g>
  </g>
</svg>