<?xml version="1.0" encoding="UTF-8"?>
<svg id="Capa_2" data-name="Capa 2" xmlns="http://www.w3.org/2000/svg" viewBox="0 0 116.7 88.94">
  <defs>
    <style>
      .cls-1 {
        fill: #b02119;
      }

      .cls-2 {
        fill: #677209;
      }
    </style>
  </defs>
  <g id="Capa_1-2" data-name="Capa 1">
    <g>
      <g>
        <path class="cls-2" d="M51.39,4.34c1.58-.05,3.06.56,4.35,1.4.03-2.2.95-4.56,2.86-5.74,1.64,1.4,2.76,3.53,2.59,5.74,1.38-.66,2.74-1.47,4.35-1.39.82,3.9-1.86,7.49-5.59,8.46,1.02.59,2.22.94,3.41.84.41-2.23,2.03-4.13,4.13-4.96,1.84-.72,2.7-.72,1.95,1.48s-2.84,4.13-5.13,4.43c-.25.25.37,3.29,1,3.56.39-2.07,1.82-4.04,3.7-5,.33-.17,1.79-.75,2.05-.75h2.57c.1,1.57-.46,3.12-1.4,4.35,1.75-.03,3.55.59,4.89,1.71,1.25,1.05.91,1.37-.31,2.32s-3,1.51-4.58,1.4c.82,1.29,1.58,2.75,1.38,4.33-3.55.73-6.63-1.28-7.99-4.49-.08-.2-.24-1.39-.54-1.08-.07.07-.55,1.61-.58,1.83-.08.52-.05,1.05-.02,1.57,2.37.36,4.75,2.63,5.2,4.98.32,1.67-.45,1.53-1.72,1.1-2.23-.75-4.07-2.83-4.6-5.11-.45-.29-2.88.47-3.4.83.55.4,1.25.47,1.87.77,2.48,1.22,4.15,4.24,3.88,7-.08.86-.32.78-1.15.68-1.24-.15-2.27-.87-3.36-1.38.16,1.64-.4,3.29-1.4,4.58-.6.77-1.12,1.52-1.95.71-1.36-1.34-2.03-3.42-2.09-5.29-1.23.94-2.78,1.5-4.35,1.4v-2.56c0-.19.52-1.56.64-1.84.83-1.83,2.92-3.61,4.95-3.83.06-.39-.32-.47-.58-.58-.49-.23-2.13-.65-2.59-.48-.19.07-.6,1.44-.81,1.84-.75,1.41-2.44,2.85-3.99,3.32-1.74.52-2.07.18-1.53-1.53.71-2.27,2.76-4.19,5.12-4.59.19-1.29-.29-2.4-.76-3.56l-.67,1.74c-1.28,2.8-4.6,4.64-7.65,4-.22-.05-.24.13-.24-.23,0-.41.16-1.19.27-1.6.25-.91.76-1.67,1.13-2.52-2.3.09-4.31-.97-5.74-2.72,1.4-1.81,3.6-2.84,5.9-2.72-.98-1.24-1.48-2.77-1.56-4.35,3.86-.68,7.57,1.75,8.4,5.59.67-.21,1.15-3.18.92-3.41-2.05-.26-4.03-1.91-4.84-3.78-1.04-2.4-.69-3.16,1.89-2.04,1.89.82,3.65,2.81,3.9,4.88,1.22.12,2.33-.32,3.41-.77-.51-.46-1.33-.56-1.97-.9-1.42-.76-3.63-3.29-3.63-4.92v-2.72ZM52.32,13.35c-.36-1.75-1.98-3.37-3.73-3.73.36,1.75,1.98,3.37,3.73,3.73ZM68.33,9.62c-1.72.36-3.37,2-3.73,3.73,1.75-.36,3.37-1.98,3.73-3.73ZM63.21,14.74c-1.14.08-2.3-.16-3.32-.64-.35-.16-1.2-.86-1.42-.86s-1.07.7-1.42.86c-1.03.48-2.19.72-3.32.64.08.79-.04,1.42-.23,2.17-.17.65-1.16,2.38-1.16,2.56,0,.27.95,1.71,1.12,2.29.26.84.33,1.57.27,2.45,1.8-.17,3.4.59,4.87,1.53,1.33-1.01,2.92-1.64,4.61-1.53.06-1.23.28-2.35.8-3.47.15-.32.75-1.03.73-1.24-.02-.26-.66-.99-.84-1.34-.51-1.04-.76-2.27-.69-3.42ZM52.48,25.62c-1.81.28-3.45,1.98-3.89,3.73,1.82-.38,3.32-2,3.89-3.73ZM68.49,29.34c-.52-1.74-2.05-3.4-3.89-3.73.58,1.72,2.06,3.38,3.89,3.73Z"/>
        <path class="cls-1" d="M58.04,15.72c5.07-.6,5.76,7.23.73,7.57s-5.6-6.99-.73-7.57Z"/>
      </g>
      <g>
        <path d="M69.73,57.73c3.19.38,3.81,3.39,1.02,4.89.86,1.4,1.7,2.93,3.03,3.96.54.42,1.04.52,1.51.82.19.12.33.15.27.43-1.91.04-3.45,0-4.73-1.57-.88-1.07-1.35-3.25-2.89-3.09v3.03c0,.09.35.53.47.62.59.44,1.61.16,1.71.86h-5.91c-.02-.65,1.02-.45,1.36-.82.11-.11.29-.68.31-.85.21-1.37.17-4.91.04-6.34-.1-1.04-.7-1.42-1.72-1.47v-.47c1.75.15,3.81-.2,5.52,0ZM67.94,62.55c3.32-.18,3.29-4.08,0-4.35v4.35Z"/>
        <path d="M60.56,44.68c3.26.38,4.04,3.23,1.19,4.89.72,1.37,1.62,3,2.88,3.94.56.41,1.19.58,1.72.92.15.1.28-.02.2.35-1.53.03-3.27.08-4.42-1.1s-1.56-3.65-3.35-3.56v2.56c0,.05.3.92.35.97.44.47,1.77.29,1.83.97h-5.75c-.05-.54.56-.42.89-.59.51-.25.65-.58.75-1.11.24-1.25.17-4.49.08-5.84s-.3-1.79-1.72-1.94v-.46c1.7.15,3.7-.2,5.36,0ZM58.77,49.5c3.46.06,3.44-4.33,0-4.19v4.19Z"/>
        <path d="M105.88,54.62v-.47c1.42.14,1.63-.92,1.72-2.09.1-1.35.14-4.25-.08-5.53-.18-1.06-.59-1.27-1.64-1.39v-.46h5.83c.36,0,1.97.55,2.36.75,3.7,1.91,3.48,7.27-.46,8.75-.25.09-1.42.44-1.58.44h-6.14ZM109.45,45.31v7.53c0,.33.58.99.92,1.1,2.48.75,4.06-1.71,4.06-3.89,0-3.01-2.05-4.8-4.98-4.74Z"/>
        <path d="M81.93,54.62c-.08-.44.11-.25.34-.35,1.14-.46,1.27-.37,1.37-1.74s.18-4.96-.04-6.18c-.04-.23-.11-.48-.28-.65-.4-.42-1.37-.21-1.39-.86,4.22-.63,11.67-.32,10.84,5.78-.25,1.82-2.38,4-4.24,4h-6.61ZM85.51,45.31v6.76c0,.06.19,1.06.22,1.17.36,1.16,1.94.96,2.79.59,1.69-.74,2.08-2.57,1.97-4.26-.19-2.88-2.27-4.15-4.98-4.26Z"/>
        <path d="M44,57.73c.01.14.05.29.15.39,2.03,2.09,3.75,4.63,5.91,6.6v-4.89c0-1.09-.96-1.82-2.02-1.63v-.47h4.2c0,.61-.78.41-1.07.87-.7,1.09-.05,3.93-.49,5.26-.23.83.44,3.37,0,3.89-.05.06-.32.2-.39.19l-6.84-7.57c-.35-.06-.22.15-.23.39-.07,1.1-.08,2.65,0,3.74.12,1.69.3,2.52,2.18,2.71v.46s-4.66,0-4.66,0v-.46c1.14-.12,1.55-.74,1.69-1.81.09-.68.15-1.76.18-2.46.07-1.68.49-4.77-1.87-4.75v-.47h3.27Z"/>
        <path d="M22.08,51.83v-4.74c0-.61-.48-1.47-1.08-1.71-.36-.14-1.19,0-1.09-.54h4.35c.02.6-.79.44-1.1.85-.14.19-.23.59-.26.83-.29,1.99-.27,4.92-.2,6.95.02.62.51,1.27-.3,1.56l-7.16-7.7v5.05c0,.21.3,1.04.46,1.25.37.46,1.15.61,1.71.7l-.15.39-4.51.07.11-.47c.67-.12,1.18-.37,1.41-1.05.28-.85.45-4.86.36-5.87-.08-.91-.18-1.49-1.03-1.92-.37-.19-1.03-.09-.99-.64h3.19l6.3,6.99Z"/>
        <path d="M51.62,44.84l-.16,2.49h-.46c-.1-2.02-1.84-1.93-3.42-1.86v3.73c.92-.15,1.84-.27,1.87-1.4.83-.17.32.56.31,1.01-.03.72.05,1.42.05,2.13,0,.21.2.44-.13.58s-.38-1.13-.79-1.22l-1.31-.33v3.34c0,1.23,4.54,1.14,5.14,0,.47-.13.83-2.1,1.16-1.95.3.14.21.4.2.65-.05.92-.36,1.85-.43,2.77h-9.64v-.46c.99-.07,1.47-.49,1.56-1.47.12-1.32.18-5.28-.05-6.49-.15-.81-.75-1.03-1.52-1.05v-.47h7.62Z"/>
        <path d="M37.16,57.73l-.39,2.49-.39-.1c.04-1.89-2.02-1.83-3.42-1.76v3.49c.18.34.95.13,1.24,0,.58-.28.51-1.09,1.1-1.16v3.73c-.51.06-.45-.55-.64-.83-.42-.63-1-.6-1.69-.56v2.87c0,.58.54.99,1.08,1.09,1.64.31,3.69.25,4.58-1.35.25-.44.3-1.33.87-1.38.16.19-.19,3.06-.54,3.42h-9.56v-.47c1.02-.02,1.47-.39,1.64-1.39.23-1.29.17-4.16.08-5.53-.05-.81-.05-1.55-.83-1.97-.31-.17-.94-.03-.89-.59h7.77Z"/>
        <path d="M76.65,67.67v-.46c.83,0,1.3-.76,1.64-1.4.61-1.14,2.56-5.84,2.8-7,.05-.23-.12-.58-.09-.62.04-.04.67-.06.94-.54.2-.36.03-1.14.38-1.02,1.51,3.22,2.25,6.89,4.04,9.94.27.5,1.14.49,1.17,1.08h-4.82v-.47c1.81.41.9-2.65.39-3.26-.21-.25-3.1-.22-3.21-.06-.48,1.55-1.4,3.43,1.11,3.33v.47h-4.35ZM82.71,62.86c-.49-1.04-.67-2.38-1.4-3.26l-.93,3.26h2.33Z"/>
        <path d="M5.44,44.84c-.28.88-1.29.22-1.71,1.33-.28.75-.25,4.34-.14,5.26.15,1.23.9,2.25,2.15,2.51,3.72.76,3.71-2.61,3.58-5.29-.03-.56-.16-2.17-.35-2.6-.34-.75-1.03-.59-1.63-.86-.21-.1-.24-.02-.2-.35h4.35c.03.57-.69.43-1.01.78-.7.77-.38,5.39-.77,6.84-.98,3.6-7.62,3.32-8.01-.39-.17-1.6.35-4.68-.2-6.02-.34-.85-1.37-.42-1.51-1.21h5.44Z"/>
        <path d="M104.63,54.62h-4.66c-.07-.55.69-.45.94-.69.61-.59-.51-2.37-.61-3.1h-3.14c-.2.88-1.25,2.68-.1,3.21.4.18,1.29.03,1.2.59h-4.35c0-.5.61-.53.93-.85.78-.77,2.91-6.34,3.34-7.69.09-.28.03-.84.1-.91s.59-.04.89-.59c.25-.46.04-.55.1-.99.36.02.49.51.62.78.88,1.96,2.55,8.16,3.73,9.32.36.36.99.41,1.02.93ZM99.81,49.81l-1.17-3.26-1.17,3.26h2.33Z"/>
        <path d="M27.67,58.2v2.95l-.48-.09c-.66-3.97-5.43-3.68-6.34.03-.7,2.86.8,6.65,4.25,6.11,1.55-.24,1.91-1.91,2.6-2.84.12-.16.21-.38.37-.1.22.38-.41,2.63-.69,3-.18.24-.81.4-1.12.48-3.32.8-7.5-.42-7.76-4.32-.36-5.33,4.92-6.89,9.18-5.21Z"/>
        <path d="M74.13,45.17l-.13,2.62-.48-.09c.03-1.69-2.18-3.73-3.31-1.76s3.07,3.29,3.92,4.59c1.29,1.97-.28,4.11-2.4,4.39-.82.11-2.88-.13-3.55-.62-.54-.4-.54-2.41-.56-3.09.61.03.62.9.9,1.35.75,1.23,2.91,2.75,3.85.99,1.41-2.63-3.78-3.24-4.12-5.54-.49-3.33,3.48-4.22,5.87-2.84Z"/>
        <path d="M57.21,58.58c-.13-.43-2,.02-2.39.26-.57.35-1.01,1.18-1.04,1.84h-.46s.31-3.42.31-3.42c.46.05.45.4,1,.47.73.1,7.2.07,7.55-.09.15-.07.25-.28.39-.38.29,0,.44,2.45.44,2.83,0,.21.2.44-.13.58-.29.12-.46-.83-.63-1.08-.7-1.07-1.98-1.28-3.17-1.09.18,1.51-.43,7.37.47,8.3.4.42,1.37.21,1.39.86h-5.44v-.47c.65.21,1.71-.55,1.71-1.17v-7.46Z"/>
        <path d="M36.85,44.84c-.08.77-1.36.27-1.35,1.29l2.52,6.32,2.11-6.3c0-1.12-1.47-.49-1.57-1.31h4.35c-.19.68-1.32.62-1.59,1.45l-3.65,8.61c-.06.34-.57.25-.75.04l-3.62-8.65-1.43-1.45h4.98Z"/>
        <path d="M94.06,57.73c.05.6-.61.4-.94.54-.61.27-.79.65-.89,1.29-.33,2.14.14,4.88-.02,7.08,1.23.93,3.4.22,4.34-.91l1.16-1.63c.34.23.18.32.13.58-.18.99-.68,2.01-.92,3h-8.3s0-.47,0-.47c.42.03,1.15-.19,1.39-.56.46-.72.41-5.29.33-6.36-.09-1.2-.27-2.15-1.72-2.09v-.46h5.44Z"/>
        <path d="M30.78,44.84c-.1.77-1.13.31-1.54,1.03-.44.78-.41,4.83-.33,5.89.09,1.34.2,2.6,1.87,2.56l-.08.47c-1.6-.3-3.28-.17-4.9-.07-.26.02-.41.16-.62-.17l1.39-.62c.2-.18.39-.7.43-.97.21-1.25.14-4.37.04-5.72-.05-.69-.1-1.51-.82-1.82-.4-.17-1.08,0-1.05-.58h5.6Z"/>
        <path d="M80.85,44.84c.1.51-.68.41-1.04.59-.77.38-.78,1.19-.83,1.97-.07,1.04-.15,5.92.43,6.46.27.25.74.32,1.08.44.24.08.44-.14.36.33h-5.6c-.08-.46.12-.25.36-.33.46-.16.8-.13,1.11-.61.55-.84.49-5.12.4-6.29-.04-.56-.15-1.52-.63-1.86-.43-.31-1.29-.15-1.24-.7h5.6Z"/>
        <path d="M50.06,70.47v4.66l2.03-.07,1.85-4.5c.03-.14.31-.12.4-.1.26.08,1.71,4.55,2.1,5.13l-.91-.02c-.48-1.29-.32-2.35-2.12-2-.52.1-.73,1.5-.85,2.02h-3.26v-5.13h.78ZM54.73,73.26l-.7-1.71-.7,1.71h1.4Z"/>
        <path d="M58.92,75.59c-.19-.19.16-2.17.16-2.56,0-.75-.32-1.73-.16-2.56h2.72c.06,0,.8.27.91.33,1.27.73,1.37,2.92.42,3.95-.29.31-1.26.85-1.64.85h-2.41ZM59.7,71.01v4.12c3.94.99,4.34-4.89.26-4.32l-.26.21Z"/>
        <path d="M74.47,70.47c2.39-.52,4.82,1.24,1.71,2.56l1.87,2.48c-1.31.8-2.06-2.39-2.88-2.41l.08,2.49h-.78v-5.13ZM75.09,72.8c2.22.4,2.43-2.27.16-2.01l-.16,2.01Z"/>
        <path d="M44.31,83.36l-.62.31c1.07,2.23-1.92,1.87-2.02,2.02-.53.8,1.47.59,1.75.65,1.58.35.81,2.9-1.48,2.57-1.3-.18-1.73-1.49-.43-1.99-1.06-.91,0-1.23,0-1.32,0-.39-.99-.79-.38-1.77.69-1.1,2.14-.3,3.17-.48ZM43.03,83.71c-.24-.24-.93-.24-1.17,0-.27.45-.27,1.03,0,1.48.97.77,1.8-.85,1.17-1.48ZM43.49,87.12c-.38-.37-2.08-.42-2.13.52-.11,1.93,3.27.6,2.13-.52Z"/>
        <path d="M56.28,86.93h-.78c.11-.8.53-3.07-.58-3.24-.46-.07-.97.42-.97.83v2.41h-.62v-2.56c0-.47-.95-.87-1.36-.51-.03.03-.35.77-.35.82v2.25h-.62v-3.57l.61.02.09.45c.28-.3.95-.66,1.37-.59.37.06.67.55.81.56.19.01.75-.61,1.36-.55.35.03,1.05.48,1.05.82v2.87Z"/>
        <path d="M65.92,81.34v5.59l-.61-.02-.02-.45c-2.84,2.22-3.73-3.23-1.16-3.24.48,0,.73.4,1.17.44v-2.33h.62ZM64.01,83.7c-.91.28-.84,3,.41,2.89s1.33-3.42-.41-2.89Z"/>
        <path d="M40.27,70.47h.78c.01,1.34-.76,4.82,1.32,4.82,2.31,0,1.62-3.33,1.48-4.82h.62s0,3.49,0,3.49c0,.14-.33.94-.46,1.09-.63.74-2.69.77-3.34.06-.06-.06-.4-.65-.4-.69v-3.96Z"/>
        <path d="M71.98,70.47l1.87,5.12h-.92s-.63-1.95-.63-1.95c-.45-.1-1.4-.22-1.73.15-.45.52-.17,1.91-1.08,1.8l2.01-5.05.47-.07ZM72.14,73.26c.07-.06-.49-1.63-.78-1.71l-.47,1.71h1.24Z"/>
        <path d="M67.01,70.47v.47s-1.71.09-1.71.09v1.62s1.71.08,1.71.08c0,.31.12.37-.23.39-.49.03-.99-.02-1.48,0v2.02h1.87c.07.14-.14.47-.23.47h-2.41v-5.13h2.49Z"/>
        <path d="M30.63,70.47v.47s-1.71.09-1.71.09v1.62s1.71.08,1.71.08c0,.31.12.37-.23.39-.49.03-.99-.02-1.48,0v2.02h1.87c.07.14-.14.47-.23.47h-2.41v-5.13h2.49Z"/>
        <path d="M31.25,84.6v2.33l-.77-.25c.22-1.6.25-3.28,0-4.88h2.25c.28,0,.83.45.97.74.74,1.47-1.18,2.36-2.45,2.06ZM31.25,84.29c2.37.49,2.34-2.78.07-2.03l-.07,2.03Z"/>
        <path d="M76.5,82.89c-.59-1.23-2.37-.99-2.99.2-1.2,2.32,1.19,4.87,3.29,2.75.18,1.18-1.59,1.19-2.41,1.09-2.6-.32-2.66-4.66-.11-5.09.69-.12,3.41-.16,2.22,1.05Z"/>
        <path d="M85.04,70.47v.47s-1.87,0-1.87,0v1.62s1.71.09,1.71.09v.46h-1.71s0,2.02,0,2.02h1.87s0,.47,0,.47h-2.64c.14-1.72.14-3.4,0-5.13h2.64Z"/>
        <path d="M39.49,70.78l-.16.77c-.38-.21-.58-.64-1.04-.74-3.73-.86-2.82,6.72,1.04,3.85l-.02.6c-5.78,2.2-5.61-6.75.18-4.48Z"/>
        <path d="M48.2,70.47v.47s-1.87,0-1.87,0v1.71s1.87,0,1.87,0v.46h-1.87s.17,2,.17,2l1.69.02v.47h-2.64c.22-1.34.19-2.75.16-4.12,0-.39-.31-.75.07-1h2.41Z"/>
        <path d="M88.62,70.62l-.16.78c-.5-.84-2.11-1-2.03.23s2.31.61,2.36,2.33-1.57,1.93-2.88,1.46c-.37-.19-.02-.58-.08-.92.48.96,2.28,1.18,2.35-.08.08-1.46-2.37-1-2.36-2.64s1.66-1.44,2.81-1.16Z"/>
        <path d="M34.2,70.63l-.15.77c-.27,0-.19-.41-.46-.55-.3-.15-1.13-.11-1.36.12-.9,2.04,3.28,1.27,2.1,3.73-.6,1.26-3.55,1.32-2.68-.2.37,1.13,2.33,1.02,2.25-.22s-2.46-.96-2.46-2.5c0-1.38,1.77-1.57,2.77-1.16Z"/>
        <path d="M82.56,86.93h-.78v-2.72c0-.78-1.71-.56-1.71.47v2.25h-.62v-3.57l.61.02.09.45c.89-.94,2.41-.75,2.41.7v2.41Z"/>
        <path d="M39.9,83.72c1.72,1.68-.82,4.45-2.6,2.83s.82-4.56,2.6-2.83ZM39.3,86.43c.52-.52.45-2.44-.31-2.8-1.68-.8-2.02,2.77-.65,2.99.24.04.79-.02.97-.19Z"/>
        <path d="M59.87,86.61c.09.09.51-.14.45.16-.61.39-.85-.05-1.2-.12s-2.03,1-2.07-.58c-.04-1.37,1.13-.89,1.92-1.34.71-.4-.22-1.61-1.19-1.03-.26.15-.17.45-.41.44l.02-.6c3.42-1.66,2.13,2.74,2.48,3.08ZM59.23,85.07c-3.01.09-.79,2.74-.1.75.08-.24.12-.49.1-.75Z"/>
        <path d="M50.1,86.59c.15.1.48-.1.43.18-.61.39-.85-.05-1.2-.12s-1.92.99-2.08-.42c-.17-1.48,1.05-1.13,2.04-1.58.13-.8-.26-1.32-1.07-1.05-.47.15-.34.38-.65.52l.02-.6c.76-.39,2.17-.59,2.32.51.07.49-.17,2.31.18,2.54ZM49.28,85.07c-1.71-.19-1.94,2.1-.14,1.18l.14-1.18Z"/>
        <path d="M69.96,85.07h-2.41c-.31.15-.12.68,0,.93.59,1.28,2.15.23,2.25.31-.37,1.1-2.71.78-3.04-.3-.91-2.98,3-3.99,3.2-.94ZM69.19,84.76c.08-1.62-1.79-1.62-1.71,0h1.71Z"/>
        <path d="M86.44,85.07h-2.49c-.01,1.05.49,1.78,1.63,1.55.3-.06.4-.35.7-.31-.07.79-1.35.69-1.91.58-1.7-.31-1.55-3.42.32-3.66,1.14-.14,1.95.72,1.75,1.84ZM85.82,84.76c-.02-1.64-1.6-1.58-1.87-.08l1.87.08Z"/>
        <path d="M81.78,70.47v.46s-1.56,0-1.56,0l.12,4.43-.89.23.16-4.66h-1.56s0-.46,0-.46c1.29.12,2.44.12,3.73,0Z"/>
        <path d="M35.14,86.93h-.78c.19-1.18.26-2.4,0-3.57h.77s.09.46.09.46l1.17-.62v.69c-.02.15-1.24-.07-1.24.63v2.41Z"/>
        <path d="M45.55,86.93l-.76-.24c.23-1.06.22-2.27-.02-3.33h.77s.09.46.09.46l1.17-.62v.69c-.02.15-1.24-.07-1.24.63v2.41Z"/>
        <rect x="77.58" y="83.36" width=".78" height="3.57"/>
        <path d="M78.36,82.43h-.78c-.13-1.08.92-1.06.78,0Z"/>
      </g>
    </g>
  </g>
</svg>