<?xml version="1.0" encoding="UTF-8"?>
<svg id="Capa_2" data-name="Capa 2" xmlns="http://www.w3.org/2000/svg" viewBox="0 0 113.97 72.76">
  <defs>
    <style>
      .cls-1 {
        fill: #0c0b0b;
      }

      .cls-2 {
        fill: #0e0e0d;
      }

      .cls-3 {
        fill: #090807;
      }

      .cls-4 {
        fill: #fcb005;
      }

      .cls-5 {
        fill: #0f0e0d;
      }

      .cls-6 {
        fill: #090808;
      }

      .cls-7 {
        fill: #070606;
      }

      .cls-8 {
        fill: #0e0d0d;
      }

      .cls-9 {
        fill: #0b0a09;
      }

      .cls-10 {
        fill: #0d0c0c;
      }

      .cls-11 {
        fill: #0a0909;
      }

      .cls-12 {
        fill: #080707;
      }
    </style>
  </defs>
  <g id="Capa_1-2" data-name="Capa 1">
    <g>
      <path class="cls-4" d="M47.81.02c.87,1.89,1.69,3.81,2.61,5.67.17.34.68,1.58.98,1.61l5.64-1.54,5.74,1.53,3.56-7.28,7.51,2.59c1.06.35.94,1.68-.21,1.74l-6.36-2.2-2.78,5.69,5.78,1.62c.5.26.65.65.56,1.2l-1.64,12.35-.24.35-6.77,5.58c-.2.36.81,1.83.77,2.4,0,.15-.68,1.83-.8,2.03-.54.95-1.85.57-1.62-.56.2-.95,1.08-1.57.13-2.58l-2.25,1.86c-.37.19-2.22.21-2.64.08-.44-.14-2.16-1.96-2.4-1.94-.95,1.01-.07,1.63.13,2.58.24,1.13-1.08,1.51-1.62.56-.11-.2-.79-1.88-.8-2.03-.04-.53.94-2.07.77-2.4l-6.77-5.58-.24-.35-1.63-12.23c-.03-.62-.06-1,.56-1.32l5.78-1.62-2.78-5.69-6.36,2.2c-.83-.03-1.21-.81-.7-1.47,2.62-1.07,5.34-2.02,8.06-2.85ZM56.28,7.76l-11.29,3.23,1.48,11.22,9.28,7.76.53.24V7.76ZM57.81,7.76v22.44c.45-.14.86-.53,1.23-.83,2.91-2.32,5.68-4.83,8.58-7.17l1.48-11.22-11.29-3.23Z"/>
      <path class="cls-12" d="M30.99,44.22c1.85-.09,3.89.56,5.07,2.04l-1.12,1.33c-2.28-2.09-5.94-2.1-7.64.7-2.52,4.15,1.23,9.98,6.11,7.64.34-.16,1.4-1.05,1.54-1.05.32,0,1.31,1.08,1.01,1.6-.59,1.01-3.18,1.76-4.29,1.82-9.03.46-9.78-13.62-.67-14.07Z"/>
      <path class="cls-6" d="M72.47,46.69c7.88-.28,7.6,12.35-.38,11.59-6.99-.67-6.71-11.34.38-11.59ZM72.35,48.21c-5.24.51-4.68,8.74.44,8.55,5.38-.2,4.8-9.06-.44-8.55Z"/>
      <path class="cls-3" d="M45.8,46.69c7.5-.32,7.84,11.29.56,11.6-7.66.33-8.02-11.29-.56-11.6ZM45.8,48.22c-5.31.38-4.78,8.74.32,8.55,5.41-.2,4.92-8.92-.32-8.55Z"/>
      <path class="cls-2" d="M90.24,54.06v-6.99c0-.26,1.64-.26,1.64,0v11.1l-6.93-7.28v7.17h-1.64v-11.28l6.93,7.28Z"/>
      <path class="cls-9" d="M103.75,58.05l5.05-11.4,5.17,11.4c-.4-.07-1.34.13-1.65-.06-.2-.12-.79-1.76-.93-2.11-.14-.2-4.26,0-4.87-.05-.34.15-.89,2.22-1.01,2.22h-1.76ZM110.68,54.29l-1.82-4-1.7,4h3.52Z"/>
      <path class="cls-11" d="M10.69,58.05l5.23-11.28,5.11,11.28h-1.7c-.12,0-.88-1.9-.99-2.16-.15-.2-4.25,0-4.87-.08-.3.21-.9,2.24-1.02,2.24h-1.76ZM14.1,54.29h3.52l-1.7-3.88c-.2-.06-.36.47-.43.63-.5,1.06-.94,2.17-1.39,3.25Z"/>
      <path class="cls-8" d="M1.64,46.89v9.63h5.11c.26,0,.26,1.53,0,1.53H0v-10.99c0-.3,1.39-.14,1.64-.18Z"/>
      <path class="cls-7" d="M58.28,46.89v9.63h5.11c.29,0,.15,1.26.18,1.53h-6.76s-.18-.16-.18-.18v-10.81c0-.3,1.39-.14,1.64-.18Z"/>
      <path class="cls-5" d="M64.39,65.45l3.41,5.05,3.52-5.05v7.17h-1.17v-3.29c-.83.78-1.3,2.3-2.01,3.1-.08.09-.12.21-.28.2l-2.18-3.29v3.29h-1.29v-7.17Z"/>
      <path class="cls-1" d="M85.28,67.08c-.21.12-1.05-.37-1.36-.43-.73-.12-1.87-.17-1.8.85s2.62.84,3.4,1.78.36,2.57-.73,3.12c-1.39.71-2.93.26-4.19-.5l.58-1.16c.4.13.67.45,1.09.61.88.33,2.86.25,2.25-1.08-.4-.87-3.32-.52-3.67-2.2-.37-1.81,1.06-2.84,2.73-2.73.41.03,1.91.38,2.05.78.06.2-.26.9-.36.96Z"/>
      <rect class="cls-7" x="97.64" y="46.89" width="1.53" height="11.16"/>
      <path class="cls-5" d="M30.55,65.45v1.29h-3.05v1.76h2.58v1.17h-2.58v2.94h-1.29v-6.99s.16-.18.18-.18h4.17Z"/>
      <path class="cls-10" d="M52.05,65.45v5.99h3.17v1.17h-4.29s-.18-.16-.18-.18v-6.81c0-.27,1.06-.16,1.29-.18Z"/>
      <rect class="cls-6" x="39.83" y="65.45" width="1.17" height="7.17"/>
    </g>
  </g>
</svg>