<?xml version="1.0" encoding="UTF-8"?>
<svg id="Capa_2" data-name="Capa 2" xmlns="http://www.w3.org/2000/svg" viewBox="0 0 106.6 68.05">
  <g id="Capa_1-2" data-name="Capa 1">
    <g>
      <path d="M44.72.02c.81,1.76,1.58,3.57,2.44,5.31.16.31.64,1.48.92,1.5l5.27-1.44,5.37,1.43,3.33-6.81,7.02,2.43c.99.32.88,1.57-.19,1.63l-5.94-2.06-2.6,5.32,5.41,1.51c.47.24.61.61.52,1.12l-1.53,11.55-.22.33-6.33,5.21c-.18.34.75,1.72.72,2.25,0,.14-.64,1.71-.74,1.9-.51.89-1.73.54-1.51-.52.19-.89,1.01-1.47.12-2.41l-2.1,1.74c-.35.18-2.08.19-2.46.07-.41-.13-2.02-1.83-2.25-1.82-.89.94-.07,1.52.12,2.41.22,1.06-1.01,1.41-1.51.52-.11-.19-.74-1.76-.74-1.9-.03-.49.88-1.93.72-2.25l-6.33-5.21-.22-.33-1.53-11.44c-.03-.58-.05-.94.52-1.23l5.41-1.51-2.6-5.32-5.94,2.06c-.78-.03-1.14-.75-.65-1.37,2.45-1,4.99-1.89,7.54-2.66ZM52.64,7.26l-10.56,3.02,1.39,10.49,8.68,7.25.49.22V7.26ZM54.07,7.26v20.99c.42-.13.81-.5,1.15-.77,2.72-2.17,5.32-4.51,8.02-6.7l1.39-10.49-10.56-3.02Z"/>
      <path d="M28.99,41.36c1.73-.09,3.64.52,4.74,1.9l-1.05,1.24c-2.14-1.96-5.55-1.96-7.14.65-2.36,3.88,1.15,9.33,5.71,7.14.32-.15,1.31-.98,1.44-.98.3,0,1.22,1.01.94,1.49-.55.95-2.97,1.65-4.01,1.7-8.44.43-9.15-12.74-.63-13.16Z"/>
      <path d="M67.78,43.67c7.37-.26,7.11,11.55-.35,10.84-6.53-.63-6.27-10.6.35-10.84ZM67.67,45.1c-4.9.48-4.38,8.17.41,8,5.04-.19,4.49-8.48-.41-8Z"/>
      <path d="M42.84,43.67c7.02-.3,7.33,10.56.52,10.85-7.16.31-7.51-10.56-.52-10.85ZM42.84,45.1c-4.96.35-4.47,8.17.3,8,5.06-.19,4.6-8.34-.3-8Z"/>
      <path d="M84.4,50.56v-6.54c0-.25,1.54-.25,1.54,0v10.38l-6.48-6.81v6.7h-1.54v-10.55l6.48,6.81Z"/>
      <path d="M97.04,54.3l4.73-10.66,4.83,10.66c-.37-.07-1.25.12-1.54-.05-.19-.12-.74-1.65-.87-1.97-.13-.19-3.98,0-4.56-.05-.32.14-.83,2.07-.95,2.07h-1.65ZM103.52,50.78l-1.7-3.74-1.59,3.74h3.3Z"/>
      <path d="M10,54.3l4.89-10.55,4.78,10.55h-1.59c-.11,0-.83-1.77-.92-2.02-.14-.19-3.97,0-4.55-.07-.28.2-.84,2.09-.95,2.09h-1.65ZM13.19,50.78h3.3l-1.59-3.63c-.18-.06-.34.44-.4.59-.46,1-.88,2.03-1.3,3.04Z"/>
      <path d="M1.54,43.86v9.01h4.78c.25,0,.25,1.43,0,1.43H0v-10.27c0-.28,1.3-.13,1.54-.16Z"/>
      <path d="M54.51,43.86v9.01h4.78c.27,0,.14,1.18.16,1.43h-6.32s-.16-.15-.16-.16v-10.11c0-.28,1.3-.13,1.54-.16Z"/>
      <path d="M60.22,61.22l3.19,4.73,3.3-4.73v6.7h-1.1v-3.08c-.77.73-1.21,2.15-1.88,2.9-.08.08-.11.2-.26.18l-2.04-3.08v3.08h-1.21v-6.7Z"/>
      <path d="M79.76,62.74c-.2.12-.99-.35-1.27-.4-.68-.12-1.75-.16-1.69.8s2.45.78,3.18,1.66.33,2.4-.68,2.92c-1.3.66-2.74.24-3.91-.47l.55-1.09c.38.13.63.42,1.02.57.82.31,2.67.23,2.11-1.01-.37-.81-3.11-.48-3.43-2.06-.35-1.7.99-2.65,2.56-2.56.38.02,1.79.36,1.91.73.06.18-.24.84-.34.9Z"/>
      <rect x="91.32" y="43.86" width="1.43" height="10.44"/>
      <path d="M28.57,61.22v1.21h-2.86v1.65h2.42v1.1h-2.42v2.75h-1.21v-6.54s.15-.16.16-.16h3.9Z"/>
      <path d="M48.68,61.22v5.6h2.97v1.1h-4.01s-.16-.15-.16-.16v-6.37c0-.25.99-.15,1.21-.16Z"/>
      <rect x="37.25" y="61.22" width="1.1" height="6.7"/>
    </g>
  </g>
</svg>