<?xml version="1.0" encoding="UTF-8"?>
<svg id="Capa_2" data-name="Capa 2" xmlns="http://www.w3.org/2000/svg" viewBox="0 0 90.81 90.7">
  <defs>
    <style>
      .cls-1 {
        fill: #c9655b;
      }

      .cls-2 {
        fill: #26b0b9;
      }

      .cls-3 {
        fill: #eff6e4;
      }

      .cls-4 {
        fill: #2fb2b9;
      }

      .cls-5 {
        fill: #e78473;
      }

      .cls-6 {
        fill: #f5ba79;
      }

      .cls-7 {
        fill: #f3f7e5;
      }

      .cls-8 {
        fill: #f0937d;
      }

      .cls-9 {
        fill: #29b0b9;
      }

      .cls-10 {
        fill: #c95a50;
      }

      .cls-11 {
        fill: #24afb8;
      }

      .cls-12 {
        fill: #fcf9e5;
      }

      .cls-13 {
        fill: #2ab0b8;
      }

      .cls-14 {
        fill: #e8e4d3;
      }

      .cls-15 {
        fill: #f5bf82;
      }
    </style>
  </defs>
  <g id="Capa_1-2" data-name="Capa 1">
    <g>
      <path class="cls-14" d="M41.36.15c39.05-3.05,63.73,40.77,40.38,72.42-19.98,27.09-62.48,23.09-77.15-7.12C-9.25,36.94,9.72,2.62,41.36.15ZM4.54,63.53c.09.21.21.4.3.6,14.66,31.7,58.49,35.18,77.8,6.02,16.79-25.36,3.8-60.02-25.45-67.89C20.67-7.56-10.62,28.84,4.54,63.53Z"/>
      <path class="cls-12" d="M4.85,64.13c2.35-.25,4.39-.79,6.81-.62,2.19.16,4.04,1.15,6.34.92,2.85-.29,4.69-2.43,7.95-1.61.45.11,2.78,1.6,2.47.55-1.33-4.47-8.39-.34-10.77-.18-1.86.13-4.15-.98-6.04-1.15-2.45-.23-4.93.29-7.07,1.47C-10.62,28.84,20.67-7.56,57.2,2.26c29.24,7.87,42.23,42.53,25.45,67.89-19.31,29.16-63.14,25.68-77.8-6.02ZM50.82,14.53c-.49-.68,1.37-3.06-.03-3.74-.7-.34-4.76.14-5.13.91-.29.61.49.43.75.45,1.05.08,2.13-.06,3.18,0-.55,1.52-.79,2.54-2.42,3.17-.31.63.88.36.9,1.18.06,2.65-4.25,6.05,1.97,6.52,4.31.33,1.7-2.56-1.06-2.11-.32-.31.9-4.66,1.4-4.81.25-.08,1.66.37,1.92-.03.68-1.01-1.39-1.43-1.48-1.54ZM39.3,20.91c1.56-.24,1.3,1.4,1.75,2.33.69,1.43,2.43,1.45,2.12-.29-.22-1.24-3.03-8.17-3.75-9.26-.24-.37-.54-.69-.92-.91-.31-.09-1.02.65-1.02.73v6.04c0,.7.78,4.57,1.07,5.29.2.48-.04.74.74.61v-4.53ZM74.36,14.27c-.37-.39-5.1.55-5.14,1.96.22.99,4.9-.36,5.1-.94.07-.21.08-.98.04-1.02ZM64.31,15.23c-3.3.63-7.79,12.31-1.72,10.38,1.27-.4,4.33-3.68,4.68-4.99.58-2.21.07-5.97-2.95-5.39ZM27.51,26.96c1.1.36,8.3,1.59,6.52-.93-.22-.31-5.9-.51-7.25-1.51-.69-.51-1.55-7.2-4.2-5.44-.88.59-.29,1.86-.27,2.59.01.38-.26.79-.23,1.19.17,2.03,6.2,7.4,7.55,9.38,3.93.38-1.32-4.15-2.12-5.28ZM73.45,32.7c-.63-.6,6.4-11.45-2.43-7.11-.69.34-4.01,2.52-4.22,3.04-.23.58.31.48.69.39,2.16-.48,3.67-2.56,5.95-2.36-.17,2.58-5.39,8.98.12,8.43.95-.1,5.71-1.35,6.35-1.81,1.18-.86.5-1.71-.83-1.67-1.94.05-3.7,1.1-5.64,1.09ZM36.88,46.6c.33.48,1.16.81.91,1.81-4.42-.61-9.28-1.68-13.09,1.26-2.89,2.23-1.69,3.42.25,5.69,2.38,2.8,5.3,4.78,8.34,6.77,1.6,1.05,4.86,2.45,6.03,3.64,1.76,1.79,2.34,5.73,5.21,6.88,3.02,1.21.94-3.36,2.1-4.53.47-.47,2.99-.83,3.85-1.14,5.58-2.03,8.41-4.17,10.73-9.82,1.57-3.82.78-6.99,5.38-9.12,3.11-1.44,12.01.04,10.45-5.94-1.16-.33-1.96.61-3.12.58-1.39-.03-2.68-1.22-4.01-1.46-.85-.15-1.94.1-2.6-.12-.35-.11-1.49-2.52-2.47-3.28-1.08-.83-2.73-1.13-3.63-1.81-.79-.58-.75-1.84-2.04-1.47s-2.07,3.4-2.04,4.62c.18,5.54,6.44,7.2.47,12.57-1.77,1.59-3.87,3.26-6.36,3.01-1.62-.16-10.52-4.34-10.97-5.66-.13-.38.05-1.05-.11-1.24-.1-.12-.7-.04-1.01-.34-.59-.58-2.48-5.28-2.55-6.25-.22-2.92,1.64-3.3,2.27-.43.17.77-.04,2.26.44,2.59.17.3.6-.27.6-.31v-5.44c0-1.04,2.11-4.4,3.17-4.39,1.16,1.77.97-.09,1.34-1.06.4-1.06,2.57-4.83-.45-1.96-1.34,1.27-2.78,2.85-3.86,4.15-.22.26-.67.3-.95.71-.54.82-.48,2.07-.47,3.01-4.63-1.67-3.36,4.62-2.72,7.25-.36-.28-.72-.67-1.21-.61l-.3.91c-.82-2.41-2.27-.74-.75.9.86.93.7-.41,1.35-.59-.16,1.18,2,2.59,1.82.6ZM48.59,30.03c-3.41.5-.68,3.4.99.4-.33-.44-.45-.48-.99-.4ZM13.98,30.96c-1.57,1.57.71,5.75,2.03,7.04,4.59,4.48,10.65,2.63,6-3.59-1.28-1.71-6.02-5.47-8.04-3.46ZM53.81,31.8c-1.65-.14-3.52.46-4.99,1.2-.59.3-1.72.68-1.66,1.51.31.26,5.96-1.12,6.47-1.48.38-.27.13-.84.18-1.24ZM5.91,34.52c-2.09,4.48,1.65,12.16,5.61,14.63,1.49.93,5.2,2.3,6.63.94,1.68-1.61-3.54-2.05-4.65-2.61-2.17-1.08-4.19-4.22-5.08-6.41-.74-1.81-.87-3.84-1.52-5.43-.15-.37-.43-1.24-.99-1.12ZM42.32,46c1.07-1.13,3.02-2.09,2.67-4-.09-.5-.55-.84-.56-1.58-.02-1.75.88-4.01,1.22-5.75-.83-.64-1.31.65-1.83.9-.29.14-.76-.1-.91,0-.18.13-1.54,3.03-1.04,3.47.55.08,1.59-1.95,1.97-1.51.24.28-.75,1.53-.84,2.03-.07.43.27.85.1,1.28s-3.18,2.61-.76,1.82l.3.15c-.12,1.09-2.13.91-1.81,2.26-.56.38-1.6.57-1.51,1.51l2.72-.3c-.55.56-.88,1.22-1.51,1.66.65.82,1.71,1.1,2.72,1.06-.01-.59-.03-1.19.22-1.75.32-.71,1.18-.4.99-1.27h-2.11ZM34.77,36.93c.19-1.15-.62-2.21-1.81-2.11-.08,1.29.34,2.37,1.81,2.11ZM33.56,38.44c.92-.85-3.59-3.27-4.23-2.72-.05,1.28,3.5,3.39,4.23,2.72ZM51.69,37.23c.32-.4-.14-1.11-.76-1.22-.78-.13-4.37.64-2.75,1.25.66.25,3.2.35,3.51-.04ZM46.86,39.35c-.09,1.05,1.55,1.04,2.3,1.17.64.11,3.6.54,3.74-.12.04-.53-.33-.65-.76-.74-1.66-.33-3.58-.32-5.28-.31ZM32.05,40.26c-.11-.11-2.93-.26-2.72.75.23,1.08,3.76.31,2.72-.75ZM50.09,50.74c2.93-2.37.64-10.32-2.35-7.94-1.35,1.07-.51,4.07-.18,5.67.28,1.35.57,3.86,2.54,2.27ZM56.79,43.85c.81-1.42-2.35-1.76-3.36.12-.43.79-.96,4.87-.85,5.83.21,1.89,2.96,2.19,3.31.84.29-1.13-1.8-1.15-1.48-2.36.19-.71,3.56-.24,2.29-1.99-.33-.45-1.7-.05-1.69-1.04,0-.85,1.66-1.18,1.79-1.39ZM83.43,51.14c-.13-.17.52-2.58.54-3.18,0-.27-.14-1.89-.54-1.96-.49,2.19-.42,5.27-2.72,6.34l.15-1.81c-.98.72-.73,1.89-1.36,2.87-.47.74-1.71,1.5-2.27,2.26l-.61-.31c-.12,1.42-2.32,7.78-3.38,8.11-3.27,1-5.39-4.14-7.19-5.39-.41-.28-.46-.55-.92,0-.41.62.81,4.61.97,5.68.44,2.82.8,5.67.69,8.52.52.11.62-.13.84-.52,1.06-1.84-.38-5.2.13-6.07.06-.1,1.74-1.27,1.91-1.28,1.41-.14,2.55,1.85,4.69.18,2.73-2.13,2.11-9.53,7.24-9.54l-1.51-.45c1.02-1.59,3.16-2.06,3.93-3.63l-.6.15ZM6.96,60.51h5.59c.27,0,6.17,2.55,2.55-.13-1.89-1.4-5.69-1.68-7.75-.54-.35.19-.51-.02-.39.68ZM60.99,64.51c-.13-.17-.78-.47-1-.08-1.07,1.9,1.49,6.31,1.37,8.47-.59-.62-4.43-5.26-5.13-4.53-.77.79,2.17,3.13,2.71,3.79,1.12,1.35,4.3,6.56,3.93.9-.06-.85-1.61-8.19-1.87-8.55ZM20.26,65.04c-.63-.07-1.2,0-1.82.15-.38.09-1.44.41-1.2,1.06.53.08,1-.03,1.51-.15.35-.08,1.77-.4,1.51-1.06ZM38.69,71.08c.78-.8.8-4.35-.82-4.79-3.13-.84-5.04,6.94-6.3,8.7s-2.47,2.42-3.3.02c-.91-2.61-.05-3.9.07-6.28.03-.56.27-.85-.37-1.27-1.86,2.05-2.16,10.1.97,10.81,5,1.12,5.13-8.13,8.4-10.21.93.7.64,1.65.76,2.56.05.41.14.92.59.45ZM50.48,69.42v10.28c0,2.57,5.66-.88,5.74-1.21.39-1.64-3.4-.06-3.93.46-.23-1.31-.18-9.69-.61-9.97-.26-.17-1.1.09-1.21.45ZM44.44,73.5c-.35-.49-3.25-.31-3.57.5-.59,1.5-.88,7.32,1.07,7.9,1.16.34,4.46-1.23,4.89-2.24.18-.42.18-.81-.42-.72-.93.13-2.53,1.31-3.64,1.47-.43-.04-.97-1.89-.62-2.39.58-.83,3.27-.29,2.59-2.1l-2.72.9c.06-.69-.31-2.12.5-2.37.21-.07,2.59-.02,1.92-.95Z"/>
      <path class="cls-4" d="M4.54,63.53c2.13-1.19,4.62-1.7,7.07-1.47,1.88.17,4.18,1.28,6.04,1.15,2.38-.17,9.44-4.29,10.77.18.31,1.05-2.02-.44-2.47-.55-3.26-.82-5.1,1.32-7.95,1.61-2.3.23-4.15-.76-6.34-.92-2.42-.17-4.46.37-6.81.62-.09-.2-.21-.39-.3-.6Z"/>
      <path class="cls-10" d="M35.98,45.39c-.64-2.63-1.91-8.92,2.72-7.25,0-.95-.07-2.2.47-3.01.27-.41.73-.45.95-.71,1.08-1.3,2.52-2.88,3.86-4.15,3.03-2.86.86.91.45,1.96-.37.97-.18,2.84-1.34,1.06-1.06-.01-3.17,3.35-3.17,4.39v5.44s-.44.6-.6.31c-.47-.33-.27-1.82-.44-2.59-.62-2.88-2.49-2.49-2.27.43.07.97,1.96,5.67,2.55,6.25.3.3.91.22,1.01.34.16.19-.01.86.11,1.24.45,1.32,9.35,5.51,10.97,5.66,2.49.24,4.58-1.42,6.36-3.01,5.97-5.37-.29-7.03-.47-12.57-.04-1.22.75-4.26,2.04-4.62s1.26.89,2.04,1.47c.9.67,2.55.97,3.63,1.81.98.75,2.11,3.16,2.47,3.28.66.22,1.75-.03,2.6.12,1.33.23,2.62,1.42,4.01,1.46,1.16.03,1.96-.91,3.12-.58,1.56,5.98-7.34,4.5-10.45,5.94-4.6,2.14-3.81,5.3-5.38,9.12-2.32,5.65-5.15,7.78-10.73,9.82-.85.31-3.37.67-3.85,1.14-1.17,1.17.92,5.74-2.1,4.53s-3.45-5.09-5.21-6.88c-1.17-1.19-4.43-2.59-6.03-3.64-3.04-1.99-5.96-3.97-8.34-6.77-1.94-2.28-3.13-3.47-.25-5.69,3.81-2.94,8.68-1.87,13.09-1.26.26-1-.58-1.33-.91-1.81-.37-.55-.09-.58-.91-1.21ZM75.26,43.88c-2.79.34-4.18-1.56-7.08-1.18-.63.08-2.91,1.29-2.84-.1s.56-2.03-.66-3.4c-.59-.66-5.24-2.97-5.73-2.55-1,2.95.61,5.56,2.04,8.06.54.95,1.37,1,1.15,2.21-.57,3.15-6.2,9.23-9.43,9.33-3.75.12-9.1-3.98-12.61-5.47s-9.75-3.14-13.27-1.36c-1.03.52-2.25,1.21-.4,1.43,14.74,1.75,10.38,10.88,17.74,19.43.27.31.29.63.85.5-.05-5.41-1.7-10.26-4.53-14.8,3.63.61,2.92,5.77,6.05,7.1,2.79,1.19,8.36,1.05,10.59-1.2,3.42-3.44,2.68-7.57,4.46-10.95.69-1.31,2.02-1.77,2.79-2.65.47-.54.81-1.89,1.2-2.14.49-.31,1.3.23,1.95.18,1.53-.1,6.11-.99,7.34-1.75.32-.2.53.01.38-.68ZM30.67,55.86c-.95-1.13-2.29-2.43-3.75-2.76l3.22,2.83.54-.07ZM30.65,57.67l-4.2-3.51c-.03.65.62,1.25,1.06,1.66,1.6,1.52,6.48,5.01,8.5,6.31.7.45,1.53,1.09,2.39,1.09l-7.74-5.55ZM30.69,54.46v.3c.2-.1.2-.2,0-.3ZM32.35,55.07s-1.15-.36-1.21-.31c-.72.71,2.03,1.32,1.21.31ZM32.8,55.68c-.3.21.16.42.31.59.3-.2-.14-.4-.31-.59ZM32.2,56.88v.3c.2-.1.2-.2,0-.3ZM33.25,57.19c-.09-.06-.41.01-.6,0-.22.76.54.77,1.21.9-.22-.18-.56-.87-.61-.9ZM34.61,58.7c-.3.21.16.42.31.59.3-.2-.14-.4-.31-.59Z"/>
      <path class="cls-4" d="M83.43,51.14l.6-.15c-.77,1.57-2.91,2.04-3.93,3.63l1.51.45c-5.13,0-4.51,7.41-7.24,9.54-2.14,1.67-3.27-.32-4.69-.18-.17.02-1.85,1.18-1.91,1.28-.51.87.93,4.23-.13,6.07-.22.39-.32.62-.84.52.1-2.86-.26-5.7-.69-8.52-.17-1.08-1.39-5.07-.97-5.68.46-.55.51-.28.92,0,1.8,1.25,3.92,6.39,7.19,5.39,1.06-.33,3.26-6.7,3.38-8.11l.61.31c.57-.76,1.8-1.52,2.27-2.26.63-.98.38-2.16,1.36-2.87l-.15,1.81c2.3-1.07,2.23-4.15,2.72-6.34.4.07.55,1.69.54,1.96-.02.6-.66,3.01-.54,3.18ZM67.41,64.43c2.09-.47.86-1.7-.3-2.42l.3,2.42Z"/>
      <path class="cls-13" d="M27.51,26.96c.8,1.13,6.05,5.67,2.12,5.28-1.35-1.98-7.37-7.36-7.55-9.38-.03-.4.24-.81.23-1.19-.02-.73-.62-2,.27-2.59,2.65-1.77,3.51,4.92,4.2,5.44,1.35,1,7.03,1.2,7.25,1.51,1.78,2.52-5.42,1.29-6.52.93ZM24.79,24.24c.49-.65-1.01-4.33-1.5-3.93-.52,1.44.25,3.1,1.5,3.93Z"/>
      <path class="cls-11" d="M5.91,34.52c.56-.12.83.75.99,1.12.66,1.59.78,3.62,1.52,5.43.89,2.19,2.91,5.32,5.08,6.41,1.12.56,6.33,1,4.65,2.61-1.43,1.37-5.14,0-6.63-.94-3.96-2.47-7.71-10.15-5.61-14.63Z"/>
      <path class="cls-2" d="M73.45,32.7c1.94.01,3.71-1.04,5.64-1.09,1.32-.04,2.01.81.83,1.67-.64.46-5.4,1.71-6.35,1.81-5.51.55-.29-5.85-.12-8.43-2.29-.21-3.79,1.88-5.95,2.36-.38.09-.93.19-.69-.39.21-.52,3.53-2.7,4.22-3.04,8.83-4.34,1.8,6.52,2.43,7.11Z"/>
      <path class="cls-13" d="M38.69,71.08c-.46.47-.54-.05-.59-.45-.12-.91.17-1.87-.76-2.56-3.26,2.08-3.4,11.33-8.4,10.21-3.13-.71-2.83-8.76-.97-10.81.64.42.4.7.37,1.27-.12,2.38-.97,3.67-.07,6.28.84,2.4,2.11,1.66,3.3-.02,1.26-1.76,3.16-9.54,6.3-8.7,1.62.44,1.6,3.99.82,4.79Z"/>
      <path class="cls-9" d="M13.98,30.96c2.01-2.01,6.76,1.74,8.04,3.46,4.64,6.22-1.42,8.06-6,3.59-1.32-1.29-3.6-5.48-2.03-7.04ZM15.01,32.73c-1.74.54,1.57,3.83,2.22,4.36.78.63,3.96,2.74,4.71,1.68.95-2.2-5.53-6.47-6.93-6.04Z"/>
      <path class="cls-2" d="M64.31,15.23c3.03-.58,3.54,3.18,2.95,5.39-.34,1.31-3.4,4.59-4.68,4.99-6.07,1.92-1.58-9.75,1.72-10.38ZM63.99,17.02c-.92.24-2.46,4.75-2.5,5.71-.02.44-.17.58.34.91,2.44.24,5.16-7.4,2.17-6.62Z"/>
      <path class="cls-2" d="M50.82,14.53c.08.12,2.15.54,1.48,1.54-.27.4-1.68-.05-1.92.03-.5.15-1.72,4.5-1.4,4.81,2.77-.45,5.38,2.44,1.06,2.11-6.22-.47-1.91-3.87-1.97-6.52-.02-.83-1.21-.55-.9-1.18,1.63-.63,1.86-1.65,2.42-3.17-1.05-.06-2.13.07-3.18,0-.25-.02-1.04.16-.75-.45.37-.77,4.43-1.25,5.13-.91,1.4.68-.46,3.06.03,3.74Z"/>
      <path class="cls-9" d="M39.3,20.91v4.53c-.78.13-.54-.12-.74-.61-.29-.72-1.07-4.59-1.07-5.29v-6.04c0-.08.71-.82,1.02-.73.38.22.68.54.92.91.72,1.1,3.53,8.03,3.75,9.26.3,1.74-1.43,1.72-2.12.29-.45-.93-.19-2.57-1.75-2.33Z"/>
      <path class="cls-4" d="M60.99,64.51c.26.35,1.82,7.69,1.87,8.55.37,5.66-2.81.45-3.93-.9-.54-.65-3.48-2.99-2.71-3.79.7-.72,4.55,3.91,5.13,4.53.12-2.17-2.44-6.57-1.37-8.47.22-.39.87-.09,1,.08Z"/>
      <path class="cls-6" d="M50.09,50.74c-1.97,1.59-2.26-.92-2.54-2.27-.33-1.6-1.17-4.59.18-5.67,2.99-2.38,5.29,5.57,2.35,7.94ZM48.97,49.32c1.56-1.23.96-4.18-.6-5.14l.6,5.14Z"/>
      <path class="cls-1" d="M42.32,42.67c-2.41.78.58-1.37.76-1.82s-.17-.86-.1-1.28c.09-.5,1.08-1.75.84-2.03-.37-.45-1.41,1.59-1.97,1.51-.5-.45.86-3.35,1.04-3.47.15-.11.61.14.91,0,.52-.25,1.01-1.54,1.83-.9-.34,1.73-1.24,4-1.22,5.75,0,.73.47,1.08.56,1.58.35,1.92-1.6,2.87-2.67,4-.1.1-.2.2-.3.3l-2.72.3c-.09-.94.95-1.13,1.51-1.51.48-.32.83-.71.99-.82.69-.43,2.24-.21,2.03-1.9-.68-.22-1.05.15-1.51.3ZM44.13,37.23c.22-.42-.19-.81-.3-.6-.22.42.19.81.3.6Z"/>
      <path class="cls-4" d="M50.48,69.42c.1-.37.95-.62,1.21-.45.43.28.38,8.66.61,9.97.52-.52,4.31-2.1,3.93-.46-.08.33-5.74,3.78-5.74,1.21v-10.28Z"/>
      <path class="cls-4" d="M44.44,73.5c.67.93-1.71.88-1.92.95-.81.25-.44,1.68-.5,2.37l2.72-.9c.68,1.81-2.01,1.27-2.59,2.1-.35.5.19,2.34.62,2.39,1.1-.16,2.7-1.34,3.64-1.47.6-.08.59.31.42.72-.42,1.01-3.72,2.59-4.89,2.24-1.95-.58-1.66-6.39-1.07-7.9.32-.81,3.22-.99,3.57-.5Z"/>
      <path class="cls-6" d="M56.79,43.85c-.12.21-1.78.54-1.79,1.39,0,.99,1.37.59,1.69,1.04,1.28,1.75-2.1,1.29-2.29,1.99-.32,1.21,1.77,1.23,1.48,2.36-.35,1.34-3.1,1.04-3.31-.84-.11-.95.43-5.03.85-5.83,1.01-1.88,4.17-1.54,3.36-.12Z"/>
      <path class="cls-4" d="M6.96,60.51c-.12-.69.04-.48.39-.68,2.06-1.14,5.86-.85,7.75.54,3.62,2.68-2.28.13-2.55.13h-5.59Z"/>
      <path class="cls-6" d="M53.81,31.8c-.05.4.19.97-.18,1.24-.51.36-6.16,1.74-6.47,1.48-.06-.83,1.06-1.21,1.66-1.51,1.47-.75,3.34-1.34,4.99-1.2Z"/>
      <path class="cls-4" d="M74.36,14.27s.03.81-.04,1.02c-.2.58-4.88,1.93-5.1.94.04-1.4,4.76-2.35,5.14-1.96Z"/>
      <path class="cls-15" d="M42.32,46h2.11c.19.87-.67.56-.99,1.27-.25.56-.24,1.16-.22,1.75-1.01.04-2.07-.24-2.72-1.06.63-.44.96-1.1,1.51-1.66.1-.1.21-.2.3-.3Z"/>
      <path class="cls-15" d="M36.88,46.6c.18,1.99-1.98.58-1.82-.6-.64.18-.49,1.52-1.35.59-1.52-1.64-.07-3.31.75-.9l.3-.91c.49-.06.85.33,1.21.61.82.63.53.66.91,1.21Z"/>
      <path class="cls-15" d="M46.86,39.35c1.7,0,3.61-.02,5.28.31.44.09.81.21.76.74-.14.66-3.1.22-3.74.12-.75-.13-2.39-.12-2.3-1.17Z"/>
      <path class="cls-15" d="M33.56,38.44c-.72.67-4.28-1.44-4.23-2.72.64-.56,5.15,1.86,4.23,2.72Z"/>
      <path class="cls-15" d="M51.69,37.23c-.31.39-2.85.28-3.51.04-1.62-.61,1.97-1.38,2.75-1.25.63.1,1.09.82.76,1.22Z"/>
      <path class="cls-14" d="M42.32,42.67c.46-.15.83-.52,1.51-.3.21,1.7-1.34,1.47-2.03,1.9-.17.1-.52.49-.99.82-.32-1.35,1.69-1.17,1.81-2.26l-.3-.15Z"/>
      <path class="cls-15" d="M48.59,30.03c.54-.08.66-.03.99.4-1.67,3-4.39.1-.99-.4Z"/>
      <path class="cls-15" d="M32.05,40.26c1.05,1.06-2.49,1.83-2.72.75-.21-1.01,2.61-.86,2.72-.75Z"/>
      <path class="cls-15" d="M34.77,36.93c-1.47.26-1.89-.82-1.81-2.11,1.19-.1,2,.97,1.81,2.11Z"/>
      <path class="cls-4" d="M20.26,65.04c.26.66-1.16.98-1.51,1.06-.51.12-.98.23-1.51.15-.24-.65.82-.97,1.2-1.06.62-.15,1.19-.21,1.82-.15Z"/>
      <path class="cls-8" d="M75.26,43.88c.14.69-.07.48-.38.68-1.22.76-5.8,1.65-7.34,1.75-.65.04-1.46-.49-1.95-.18-.39.25-.73,1.6-1.2,2.14-.76.88-2.1,1.35-2.79,2.65-1.78,3.38-1.04,7.51-4.46,10.95-2.23,2.25-7.8,2.39-10.59,1.2-3.13-1.33-2.41-6.49-6.05-7.1,2.83,4.55,4.48,9.39,4.53,14.8-.56.13-.59-.19-.85-.5-7.36-8.55-3-17.68-17.74-19.43-1.85-.22-.63-.91.4-1.43,3.52-1.78,9.75-.13,13.27,1.36s8.86,5.59,12.61,5.47c3.23-.1,8.86-6.19,9.43-9.33.22-1.21-.61-1.26-1.15-2.21-1.43-2.49-3.04-5.1-2.04-8.06.5-.42,5.15,1.89,5.73,2.55,1.22,1.38.73,1.98.66,3.4s2.2.18,2.84.1c2.9-.37,4.29,1.53,7.08,1.18ZM37.49,53.86c.13-1.33,0-2.02-1.51-1.81-.38.66,1.19,2.18,1.51,1.81ZM39.3,52.65c-.95-.88-2.57,3.17-.3,2.24-.17-.46.47-2.09.3-2.24ZM54.41,57.18c-3.15-.84-6.43-.96-9.37-2.42.75,2.26,3.74,2.1,5.52,2.49,1.18.26,4.2,1.93,3.85-.07Z"/>
      <path class="cls-5" d="M30.65,57.67l7.74,5.55c-.86,0-1.69-.64-2.39-1.09-2.01-1.29-6.9-4.79-8.5-6.31-.43-.41-1.08-1.01-1.06-1.66l4.2,3.51Z"/>
      <path class="cls-5" d="M30.67,55.86l-.54.07-3.22-2.83c1.46.33,2.81,1.63,3.75,2.76Z"/>
      <path class="cls-5" d="M32.35,55.07c.82,1.01-1.93.4-1.21-.31.06-.06,1.17.26,1.21.31Z"/>
      <path class="cls-5" d="M33.25,57.19s.39.72.61.9c-.67-.13-1.43-.15-1.21-.9.18.02.5-.05.6,0Z"/>
      <path class="cls-5" d="M30.69,54.46c.2.1.2.2,0,.3v-.3Z"/>
      <path class="cls-5" d="M32.8,55.68c.17.19.61.39.31.59-.15-.18-.61-.38-.31-.59Z"/>
      <path class="cls-5" d="M32.2,56.88c.2.1.2.2,0,.3v-.3Z"/>
      <path class="cls-5" d="M34.61,58.7c.17.19.61.39.31.59-.15-.18-.61-.38-.31-.59Z"/>
      <path class="cls-3" d="M67.41,64.43l-.3-2.42c1.16.71,2.39,1.95.3,2.42Z"/>
      <path class="cls-3" d="M24.79,24.24c-1.26-.83-2.02-2.49-1.5-3.93.5-.4,2,3.28,1.5,3.93Z"/>
      <path class="cls-7" d="M15.01,32.73c1.4-.43,7.88,3.84,6.93,6.04-.75,1.07-3.93-1.04-4.71-1.68-.65-.53-3.96-3.82-2.22-4.36Z"/>
      <path class="cls-3" d="M63.99,17.02c3-.78.27,6.86-2.17,6.62-.51-.33-.36-.46-.34-.91.04-.96,1.59-5.47,2.5-5.71Z"/>
      <path class="cls-14" d="M48.97,49.32l-.6-5.14c1.56.96,2.17,3.91.6,5.14Z"/>
      <path class="cls-12" d="M44.13,37.23c-.1.21-.51-.18-.3-.6.1-.21.51.18.3.6Z"/>
      <path class="cls-10" d="M54.41,57.18c.35,2-2.67.33-3.85.07-1.77-.39-4.77-.23-5.52-2.49,2.94,1.46,6.22,1.58,9.37,2.42Z"/>
      <path class="cls-10" d="M39.3,52.65c.16.15-.48,1.78-.3,2.24-2.27.93-.65-3.12.3-2.24Z"/>
      <path class="cls-10" d="M37.49,53.86c-.31.37-1.89-1.15-1.51-1.81,1.5-.21,1.64.48,1.51,1.81Z"/>
    </g>
  </g>
</svg>