<?xml version="1.0" encoding="UTF-8"?>
<svg id="Capa_2" data-name="Capa 2" xmlns="http://www.w3.org/2000/svg" viewBox="0 0 78.49 78.57">
  <defs>
    <style>
      .cls-1 {
        fill: #0b0b0b;
      }

      .cls-2 {
        fill: #989898;
      }

      .cls-3 {
        fill: #141414;
      }

      .cls-4 {
        fill: #676767;
      }

      .cls-5 {
        fill: #121212;
      }

      .cls-6 {
        fill: #fbfbfb;
      }

      .cls-7 {
        fill: #3d3d3d;
      }

      .cls-8 {
        fill: #717171;
      }

      .cls-9 {
        fill: #262626;
      }

      .cls-10 {
        fill: #101010;
      }

      .cls-11 {
        fill: #020202;
      }

      .cls-12 {
        fill: #707070;
      }

      .cls-13 {
        fill: #030303;
      }

      .cls-14 {
        fill: #131313;
      }

      .cls-15 {
        fill: #8f8f8f;
      }

      .cls-16 {
        fill: #666;
      }

      .cls-17 {
        fill: #090909;
      }

      .cls-18 {
        fill: #6b6b6b;
      }

      .cls-19 {
        fill: #373737;
      }

      .cls-20 {
        fill: #404040;
      }

      .cls-21 {
        fill: #525252;
      }

      .cls-22 {
        fill: #1b1b1b;
      }

      .cls-23 {
        fill: #dbdbdb;
      }

      .cls-24 {
        fill: #c8c8c8;
      }

      .cls-25 {
        fill: #ededed;
      }

      .cls-26 {
        fill: #3f3f3f;
      }

      .cls-27 {
        fill: #070707;
      }

      .cls-28 {
        fill: #040404;
      }

      .cls-29 {
        fill: #010101;
      }

      .cls-30 {
        fill: #cacaca;
      }

      .cls-31 {
        fill: #696969;
      }

      .cls-32 {
        fill: #c6c6c6;
      }

      .cls-33 {
        fill: #1d1d1d;
      }

      .cls-34 {
        fill: #6a6a6a;
      }

      .cls-35 {
        fill: #878787;
      }
    </style>
  </defs>
  <g id="Capa_1-2" data-name="Capa 1">
    <g>
      <path class="cls-8" d="M20.7,4.89c14.56-7.81,30.79-6.22,43.42,4.45.35.37.2.5-.26.26C51.84-.16,34.76-2.13,20.96,5.15c-.43.17-.5.16-.26-.26Z"/>
      <path class="cls-12" d="M62.29,70.81c-12.59,9.29-27.89,10.23-41.59,2.88-.35-.34-.2-.43.26-.26,12.75,6.73,29.18,5.63,40.81-2.88.43-.18.68-.26.52.26Z"/>
      <path class="cls-4" d="M20.7,4.89l.26.26C9.59,11.16,2.27,23.15.82,35.76l-.26,1.05c-.07.23-.16.23-.26,0-.25-.29-.16-.71,0-1.05C.89,22.63,9.4,10.95,20.7,4.89Z"/>
      <path class="cls-29" d="M3.96,54.59c.14-.14,3.28-.76,3.78-.8,2.92-.21,5.42,1.05,7.86.8,1.4-.15,2.7-1.12,4.09-1.4,1.46-.29,4.5-.37,4.93,1.54.35,1.54-1.72-.22-2.28-.34-2.74-.58-5.03,1.52-7.53,1.53-1.1,0-2.2-.56-3.21-.73-2.76-.46-4.76-.36-7.38.71-.05-.1-.31-.31-.52-.78-.1-.23-.01-.41.26-.52Z"/>
      <path class="cls-4" d="M67.26,12.22c7.26,7.49,12.38,19.62,11.01,30.23-.08.59-.51.32-.55.37-.07.23-.16.23-.26,0,.79-11.51-2.72-21.66-10.46-30.08-.29-.47-.35-.64.26-.52Z"/>
      <path class="cls-16" d="M62.29,70.81l-.52-.26c8.46-6.19,14.97-17.17,15.69-27.73h.26c-.1.15.05,2.86-.03,3.5-1.05,9.22-8.12,19.11-15.41,24.49Z"/>
      <path class="cls-31" d="M5,58.25c1.61.87,2.4,2.98,3.55,4.42,3.25,4.09,7.75,8.29,12.4,10.75l-.26.26c-6.32-3.39-12.63-8.83-15.69-15.43Z"/>
      <path class="cls-18" d="M.3,36.8c.16.36.24.36.26,0,.04-.54.24-.87.26-1.05-.28,5.75.25,11.28,2.09,16.74.07.42-.02.6-.26.52C.39,47.76-.03,42.89.03,37.19c0-.44-.17-1.16.27-1.43-.02.35,0,.7,0,1.05Z"/>
      <path class="cls-35" d="M67.26,12.22l-.26.52c-1.01-1.1-1.98-2.19-3.14-3.14l.26-.26c1.26,1.06,1.96,1.66,3.14,2.88Z"/>
      <path class="cls-15" d="M3.96,54.59s.04.26,0,.39l-.26.14c-.31-.68-.7-1.29-1.05-2.09l.26-.52c.24.7.47,1.72,1.05,2.09Z"/>
      <path d="M15.95,43.31c-.12.2-1.55.57-1.92.58-5.36.19-9.8-7.72-9.57-12.45.06-1.19.76-2.55,1.53-.98.57,1.16.62,3.46,1.24,5.04.75,1.91,2.72,4.97,4.65,5.81.99.43,5.08.33,4.07,2.01Z"/>
      <path class="cls-29" d="M63.01,21.43c5.17-.89-.41,5.55.44,6.75.54.75,2.9-.6,3.74-.73,1.22-.19,3.36.19,1.89,1.37-.43.35-5.75,1.68-6.43,1.69-3.8.04,1.28-6.27.56-7.31-.3-.39-.55-.24-.93-.14-1.14.3-3.09,2.15-4.1,2.19-.36.02-.67-.27-.6-.6.16-.74,4.51-3.05,5.42-3.21Z"/>
      <path class="cls-29" d="M33,61.39l-.27-2.35c-1.3-.09-1.84,1.55-2.31,2.52-.86,1.78-1.75,5.34-3.77,6.17-4.78,1.98-4-9.45-2.42-9.47.92-.01-.1,3.82-.1,4.34-.03,2.13.98,5.37,3.07,2.54,1.23-1.67,2.67-8.47,5.55-7.57,1.83.58.98,4.68.25,3.82Z"/>
      <path class="cls-29" d="M43.98,9.34c.66,1.06-.54,2.3-.28,3.24.06.22,1.48.31,1.33,1.07-.12.6-1.5.19-1.97.65-.18.18-1.1,3.09-1.08,3.28.1,1.01,2.43.33,2.93,1.17,1.35,2.26-4.5,1.14-4.8-.18-.33-1.46,2.52-4.39.48-5.18.34-.49,1.08-.49,1.42-.93.26-.34.82-2.17.03-2.07s-1.61.42-2.5.25c-.13-.55.02-1.31.66-1.31h3.79Z"/>
      <path class="cls-29" d="M33.15,10.92c.52-.09.92.84,1.12,1.2,1.27,2.37,2.03,5.59,3.19,8.08.1.81-.65,1.2-1.34.79-.62-.38-.77-3.21-1.69-3.01-1.05.61.38,4.16-.79,4.18-.32,0-.51-1.2-.58-1.51-.34-1.58-.55-4.29-.61-5.93-.03-.76-.27-3.63.69-3.79Z"/>
      <path class="cls-11" d="M52.58,55.67c.4.25,1.78,8.42,1.55,9.2-.66,2.17-3.09-2.15-3.7-2.86-.5-.58-2.09-1.36-2.16-2.3s.61-.75,1.19-.25l3.42,3.51c.27-1.28-2.37-6.6-1.27-7.28.16-.1.82-.1.98,0Z"/>
      <path class="cls-29" d="M43.46,59.82c.7-.28,1.15-.18,1.3.66.24,1.3-.23,6.9.13,7.45.55.84,3.55-2.08,3.55-.13,0,.51-3.06,2.07-3.61,2.18-.63.13-1.37-.31-1.37-.87v-9.29Z"/>
      <path class="cls-11" d="M38.22,64.27c-1.56-.06-2.06.55-1.83,2.09.4.43,2.14-1.3,2.35-.39.24,1.03-1.06.94-1.64,1.23-1.13.58-.59,1.28-.44,2.28.57.09,1.11-.1,1.63-.3.55-.22,2.41-1.74,1.98-.12-.23.84-2.9,2.12-3.69,1.97-1.87-.35-1.76-4.89-1.45-6.31.48-2.18,3.79-1.09,3.08-.45Z"/>
      <path class="cls-28" d="M47.85,43.13c.83,1.44-2.28,1.74-2.48.05-.05-.45.61-4.62.84-5.07.72-1.48,2.69-1.22,2.49-.39-.07.29-1.67.89-1.56,1.55s1.85.57,1.56,1.59c-.19.65-1.76.03-1.85,1.05s.88.99,1.01,1.22Z"/>
      <path class="cls-13" d="M13.64,53.28c-.15.16-3.33-1-4.06-1.05-1.13-.07-2.04.3-3.13.26-.58-1.67,3.02-1.4,4.12-1.24.6.09,3.9,1.16,3.08,2.02Z"/>
      <path class="cls-13" d="M59.68,14.31c-.96-.95,4.33-2.92,4.71-1.7.43,1.39-3.82,1.93-4.71,1.7Z"/>
      <path class="cls-27" d="M45.23,27.44c1.26-.17,1.57.79.52,1.32-.47.24-3.15.88-3.91,1.06-.32.08-.88.32-.99-.21-.15-.72,3.77-2.09,4.38-2.17Z"/>
      <path class="cls-5" d="M45.55,35.23c-.19.2-3.43-.17-3.99-.33-1.2-.33-1.34-.99.12-.91.66.04,3.58.21,3.75.44.14.2.18.74.12.8Z"/>
      <path class="cls-17" d="M28.81,33.14c-.8.48-3.52-1.37-3.4-1.96.32-.4.33-.4.79-.28s3.31,1.55,2.6,2.24Z"/>
      <path class="cls-1" d="M44.5,31.31c.78,1.26-2.76,1.42-3.14.65-.24-.49.71-.5,1-.56.34-.07,1.97-.35,2.14-.08Z"/>
      <path class="cls-10" d="M27.76,35.75c-.12.18-1.9.48-2.24.02-1.03-1.4,3.13-1.43,2.24-.02Z"/>
      <path class="cls-14" d="M30.11,31.83c-1.93.39-2.07-2.66-.37-1.33.42.33.4.87.37,1.33Z"/>
      <path class="cls-27" d="M14.95,57.47c-.66-.57,2.68-1.88,2.61-.91-.03.4-2.12,1.06-2.61.91Z"/>
      <path class="cls-3" d="M40.58,27.39c-.57-.55,1.61-2.24,2.09-.91-.22.5-1.76,1.23-2.09.91Z"/>
      <path class="cls-26" d="M37.96,39.94c.28.28-1.15,1.99-1.57.91-.18-.48,1.24-.87,1.57-.91Z"/>
      <path class="cls-21" d="M.56,36.8c-.13,1.63.2,3.35-.13,4.97-.25,0-.14-4.45-.13-4.97h.26Z"/>
      <rect class="cls-21" x="77.72" y="36.8" width=".26" height="4.97"/>
      <path d="M63.73,37.08c-1.3.01-2.05-1.06-2.94-1.26-.87-.2-2.08.15-2.78-.1-.46-.16-1.14-2.08-1.77-2.68-1.01-.96-2.51-1.13-3.47-1.76-1.1-.72-1.6-3.12-2.97-.03-1.97,4.42,1.6,6.24,2.23,9.41.43,2.15-2.44,4.42-4.05,5.51-2.58,1.75-3.25,1.82-6.19.53-.82-.36-6.72-3.34-6.91-3.68-.17-.31.05-.84-.19-1.25-.13-.22-.65-.33-.88-.69-.77-1.17-3.2-6.36-1.61-7.31,1.98-.42,1.25,3.27,1.83,3.68.14.25.51-.2.52-.26.22-.88,0-3.57,0-4.71,0-.85,1.65-3.67,2.88-3.53.48.79-1.47,4.28-1.31,4.44.6.57,1.61-1.32,1.96-1.57.37.75-.54,1.61-.79,2.35-.12.36.16.79-.04,1.24-.4.86-2.96,1.95.44,1.38.26,1.24-.54.63-1.18,1.04-.23.15-2.49,2.13-2.22,2.36,1.63.43,4.61-1.68,4.71-3.29.04-.65-.53-1.1-.53-1.8-.01-1.09,1.11-4.72,1.06-4.97-.22-1.09-1.75,1.42-1.82.26-.01-.21.82-2.49.99-2.93.12-.32,1.47-2.12.44-2.17-.83-.04-2.27,2.59-2.87,3.14-.5.45-1.1.54-1.7,1.17-.87.92-1.22,2.01-1.05,3.27-2.97-1.12-3.18,2.07-2.81,4.25.32,1.9,2.23,2.97,2.03,4.9-4.04-.57-8.08-1.79-11.51,1.17-2.24,1.93-1.23,2.67.39,4.58,2.02,2.39,4.6,4.18,7.22,5.86,1.41.9,4.43,2.19,5.45,3.19,1.12,1.1,1.48,3.47,2.91,4.94,4.05,4.18,1.85-2.01,2.99-3.02.61-.53,5.39-1.51,6.86-2.29,2.41-1.28,4.72-4.6,5.71-7.11,1.29-3.28.68-6.05,4.7-7.86,2.13-.96,9.36-.31,9.32-4.04-.02-2.24-2.11-.38-3.02-.38ZM57.97,39.94c-.47.04-.93-.41-1.43-.15-.43.22-.75,1.25-1.17,1.72-1.1,1.22-2.48,1.82-3.01,3.66-.01,1.19-.45,2.06-.78,3.14-.8,2.26-2.02,4.18-3.66,5.75-1.59.91-4.58,1.81-6.28,1.31l-.5-.09c-.34.61-.69.47-1.07-.43-1.33-.74-2.12-4.04-3.14-5.36-.33-.42-1.39-1.57-1.44-.39,0,.22,1.72,3.07,2.01,3.74.71,1.67,1.43,3.98,1.53,5.79.11,1.91.23,3.32-1.38,1.12-1.86-2.54-2.99-5.51-4.39-8.3-.14-.23-.37-.25-.65-.14l-1.47-2.85c-.75-.73-1.35-1.47-1.8-2.24l-.43.12c-1.77-1.05-3.63-1.79-5.58-2.22-.26-.14-.45-.33-.78-.26-.68-.77,2.9-1.53,3.31-1.55,5.79-.28,8.74,1.84,13.43,4.43l.24.55c-.53.12-.71.22-.51.76,1.66,1.59,5.27,1.55,7.43,2.34,1.31-1.25-1.03-.71-1.41-1.55,2.07-.05,3.43-1.48,4.97-2.62,1.32-1.45,3.46-3.58,3.66-5.65.08-.88-1.69-3.05-2.14-4.11-.6-1.38-1.08-2.87-.45-4.34.72-.33,1.21.37,1.54.5,1.35.54,2.48,1.32,3.4,2.35.26.73.2,2.22.42,2.38.62.46,1.44-.2,2.09-.27,1.92-.19,3.66.6,5.33,1.42,0,.56-5.14,1.38-5.88,1.44Z"/>
      <path class="cls-6" d="M23.58,45.7c.14-.43.33-.44.52,0,1.45.55,2.92,1.04,4.42,1.47l.03.62c.69.38.99.84.89,1.41.95.53,2.1,1.68.68,2.26-.93.39-2.5-.93-2.79-1.99l-.54.02-3.11-2.58c-.57.02-.77-.21-.61-.68.03-.17-.04-.38,0-.52.26-.4.42-.49.52,0Z"/>
      <path class="cls-7" d="M33.26,51.45c-1.16-.81-.2,1.26-.26,1.31h-1.05c-.09.32.23.6.26.79-.71.46-2.28-.81-2.35-1.57-.39-.4-.24-.54.26-.26.19-.45.38-.49.52,0,1.36-.48.59-1.95-.26-3.07-1.05-.61-1.57-1.25-1.57-1.9.35-.21.53-.39.52-.52,2.51,1.77,2.58,2.56,3.92,5.23Z"/>
      <path class="cls-34" d="M23.05,46.22c.87.22,3.16,2.93,3.8,2.87.28-.03.33-.85.52-.78.46.18.38,1.31.73,1.76.22.28,1.56,1.26,2.02,1.38.23.07.23.16,0,.26-.13.01-.23.13-.26.26-.32.26-.84.08-1.57-.52l-4.9-4.09-.33.17c-.47-.53-.1-.72,0-1.31Z"/>
      <path class="cls-9" d="M23.32,44.13c2.37.04,4.16.79,6.02,2.09l.26.52c-.26,0-.53.02-.78,0l-2.48-1.02c-1.05-.39-1.98-.68-2.76-.03-.17,0-.35,0-.52,0,.29-1.04.69-.71,1.04-1.3-.31.03-.53-.13-.78-.26Z"/>
      <path class="cls-25" d="M28.29,51.45c-1.53-.88-4.06-2.61-5.23-3.92-.08-.74.16-.65.66-.27,1.86,1.43,3.05,2.56,4.57,4.19Z"/>
      <path class="cls-30" d="M47.9,54.07c1.58-1.66,2.37-3.87,3.66-5.75-.72,2.29-1.47,4.51-3.66,5.75Z"/>
      <path class="cls-24" d="M39.27,46.74c.66.36,1.6.68,2.23,1.03,1.31.74.56,1.02-.6.6-.39-.14-2-1.6-1.9-.32-.55-.52-.09-.79.26-1.31Z"/>
      <path class="cls-23" d="M29.85,51.98c.73.41,1.37,1.44,2.35,1.57.03.16-.01.35,0,.52-.52.43-3.41-2.07-3.92-2.61.23.13,1.15.29,1.57.52Z"/>
      <path class="cls-22" d="M41.63,55.38c-1.41-.22-.21.51-.78.91-.62.43-1.58.46-1.31-.51.13-.45,1.2-.15.52-.92.13.07,1.29.44,1.57.52Z"/>
      <path class="cls-32" d="M56.01,34.97l-3.4-2.35c1.33.5,2.86.82,3.4,2.35Z"/>
      <path class="cls-29" d="M72.89,43.61l-.65.52c-.23-.49.26-1.2.26-1.44v-4.32h-.78c-.04,1.8-.02,4.39-.99,5.94-.25.4-.52.95-1.1.86l-.13-1.04c-.65,1.28-1.07,2.83-2.5,3.53-.28.13-.76-.16-.91.11-.21.38-.08,1.08-.25,1.6-.21.65-2.02,5.16-2.24,5.35-2.09,1.86-5.83-3.47-6.93-4.83l-.61.43c.24,2.43,1.04,4.8,1.27,7.28.08.86.21,2.08.24,2.9.02.59-.39,1.15-.21,1.76.13.41.77.6,1.01.43.79-.52-.22-4.97.14-5.75,1.1-2.42,3.22-.06,5.11-.65,1.94-.6,2.65-5.75,4.05-7.46.55-.67,1.87-.99,1.93-1.08.03-.04-.31-.39,0-.9.62-1.03,3-1.92,3.43-2.88.05-.11.07-.43-.13-.39ZM58.11,55.64c-.07-.06-.32-1.76-.26-1.83,1.85.02,1.21,2.68.26,1.83Z"/>
      <path class="cls-29" d="M24.35,21.77c-2.35-.67-1.45-1.08-1.93-2.77-.29-1-1.5-3.53-2.84-2.62-.51.34-.51,3.38-.31,3.93.7,1.96,5.26,5.58,6.41,7.73.32.17.75.23,1.06.02,1.48-1.04-3.02-4.19-3.42-5.11,1.34.07,5.54,1.94,6.42.53,1.05-1.7-4.22-1.36-5.39-1.7ZM21.48,20.85c-1.02.15-1.6-2.52-1.31-2.87.99-.2,1.53,2.61,1.31,2.87Z"/>
      <path class="cls-29" d="M20.37,32.29c-.41-2.44-5.01-6.66-7.6-5.89-2.41.71-.57,4.44.46,5.7,1.95,2.4,8.02,5.44,7.13.19ZM19.02,33.42c-1.13,1.55-6.26-2.77-6.38-4.38-.02-.32.3-.72.6-.77,1.45-.22,6.75,3.81,5.78,5.15Z"/>
      <path class="cls-29" d="M55.69,13.05c-2.32.2-5.35,6.71-4.09,8.69,1.53,2.42,5.95-2.32,6.39-4.02.44-1.72.04-4.87-2.3-4.67ZM54.58,19.81c-3.36,3.25-.47-5.07.77-5.17,2.33-.19.24,4.2-.77,5.17Z"/>
      <path class="cls-28" d="M41.77,36.8c-1.82.26-1.08,3.23-.85,4.51.22,1.29.45,3.9,2.2,2.48,1.54-1.25,1.2-7.36-1.35-6.99ZM42.67,42.56c-1.04-.09-1.23-3.97-1.04-4.18,1.62.49,1.48,2.86,1.04,4.18Z"/>
      <path class="cls-19" d="M33,47.79c-.46-.37.12-1.64.39-2.09.85.35.29,2.65-.39,2.09Z"/>
      <path class="cls-33" d="M32.47,46.48c-.5.51-1.6-1.04-1.31-1.31.61-.55,1.84.76,1.31,1.31Z"/>
      <path class="cls-18" d="M28.81,46.74c.37.36,1.57,1.46,1.79,1.74s1.35,2.94,1.34,3.1c-.07.79-1.23.13-1.3.13-.42-.13-.1-.97.13-.91-.49-1.11-1.23-2.11-2.22-3.02-.42-.21-.75-.63-1.23-.73-1.27-.28-2.28.11-3.22-1.36.14-.42.51-.53,1.12-.31l3.59,1.36Z"/>
      <path class="cls-2" d="M28.55,47.79c1.19.6,2.82,1.54,2.63,3.24-.02.19-.74.15-.54.69-.17-.01-.36-.01-.52,0v-.26c.91-1.09-.92-1.48-1.16-2.08-.13-.32.28-1.13-.41-1.58Z"/>
      <path class="cls-20" d="M28.81,46.74c-1.72-.11-2.51-1.19-4.71-1.05-.17.01-.35,0-.52,0,.01-.83.51-.83,1.15-.78.77.06,3.51,1.28,4.08,1.82Z"/>
    </g>
  </g>
</svg>