<?xml version="1.0" encoding="UTF-8"?>
<svg id="Capa_2" data-name="Capa 2" xmlns="http://www.w3.org/2000/svg" viewBox="0 0 102.6 49">
  <defs>
    <style>
      .cls-1 {
        fill: #010101;
      }

      .cls-2 {
        fill: #020202;
      }

      .cls-3 {
        fill: #6408f3;
      }

      .cls-4 {
        fill: #f9047a;
      }

      .cls-5 {
        fill: #a9a9a9;
      }

      .cls-6 {
        fill: #6508f4;
      }

      .cls-7 {
        fill: #020102;
      }

      .cls-8 {
        fill: #fa047b;
      }
    </style>
  </defs>
  <g id="Capa_1-2" data-name="Capa 1">
    <g>
      <rect class="cls-5" y="41.41" width=".06" height="7.53"/>
      <rect class="cls-5" y="35.84" width=".06" height="3.13"/>
      <path class="cls-2" d="M102.6,45.63h-.06c.03-.37.03-.9,0-1.27h.06v1.27Z"/>
      <path class="cls-7" d="M35.43,17.07c.2-.16,1.54-1.15,1.56-1.25-1.71-3.21,1.17-6.88,4.71-5.86.72.21,1.41.67,1.9,1.23.12.13.34.55.43.61.19.13.83.02,1.08-.03,1.37-.3,2.41-1.51,2.55-2.9-.63-.72-1.14-1.51-1.27-2.49-.48-3.67,3.83-6.05,6.63-3.62,2.61,2.25,1.4,6.51-1.98,7.06-1.1.18-2.02-.11-2.97-.63-.23,1.82-1.95,3.2-3.76,3.13,1.24,3.37-2.03,6.65-5.41,5.21-.67-.29-1.08-.74-1.62-1.2-.48.38-.97.76-1.45,1.15-.05.04-.04.11-.04.12-.77.64-1.4.86-1.82,1.91-1.17,2.94,1.71,5.64,4.57,4.39,8.54-6.61,16.76-13.66,25.28-20.3,3.14-1.64,6.67,1.26,5.61,4.69-.38,1.25-1.46,2.02-2.43,2.81-.21.17-1.53,1.11-1.55,1.25,1.79,3.38-1.47,7.08-5.05,5.76-.18,2.2-2.21,3.81-4.4,3.42.87,4.32-4.92,6.73-7.33,3.02-2.99-4.6,4.09-8.9,6.82-4.33.1.16.3.72.35.78.08.09.84.14,1,.13,1.53-.09,3.02-1.43,3.09-2.99.02-.4-.41-.5-.69-.74-3.6-3.13.41-8.98,4.69-6.55.5.28.8.67,1.24,1.01.43-.37.87-.71,1.31-1.07.08-.06.13-.17.17-.2.64-.52,1.39-.92,1.85-1.65,1.71-2.69-.78-6-3.82-5.1-.67.2-1.11.6-1.65,1.02-7.92,6.12-15.45,12.77-23.34,18.94-2.8,2.37-6.96.17-6.51-3.5.19-1.55,1.16-2.3,2.26-3.22Z"/>
      <path class="cls-4" d="M35.78,17.6s-.01-.07.04-.12c.48-.39.96-.77,1.45-1.15.53.46.95.92,1.62,1.2,3.37,1.44,6.65-1.83,5.41-5.21,1.81.07,3.53-1.31,3.76-3.13.95.52,1.87.81,2.97.63,3.38-.55,4.59-4.81,1.98-7.06-2.8-2.42-7.11-.04-6.63,3.62.13.98.64,1.77,1.27,2.49-.14,1.39-1.17,2.6-2.55,2.9-.24.05-.89.17-1.08.03-.09-.06-.31-.48-.43-.61-.49-.56-1.18-1.02-1.9-1.23-3.54-1.02-6.42,2.64-4.71,5.86-.02.1-1.36,1.09-1.56,1.25-1.54-2.48-.89-5.27,1.25-7.12,3.59-3.12,7.55-5.95,11.18-9.03,5.86-3.59,11.69,4.16,6.36,8.79-3.64,3.17-7.67,6.07-11.39,9.16-2.34,1.39-5.38.86-7.04-1.28Z"/>
      <path class="cls-3" d="M66.64,10.59s-.1.14-.17.2c-.44.35-.89.7-1.31,1.07-.44-.34-.74-.73-1.24-1.01-4.28-2.43-8.29,3.41-4.69,6.55.28.25.71.34.69.74-.07,1.56-1.57,2.9-3.09,2.99-.16,0-.92-.04-1-.13-.05-.06-.26-.62-.35-.78-2.73-4.57-9.81-.27-6.82,4.33,2.41,3.71,8.2,1.3,7.33-3.02,2.19.39,4.22-1.22,4.4-3.42,3.57,1.33,6.84-2.38,5.05-5.76.03-.14,1.34-1.08,1.55-1.25.95,1.41,1.05,3.3.43,4.87-.41,1.06-1.08,1.71-1.91,2.43-3.52,3.05-7.34,5.79-10.89,8.8-5.76,3.69-11.6-3.91-6.65-8.56,3.74-2.8,7.23-6.12,10.98-8.89.26-.19.55-.41.82-.57,2.3-1.27,5.28-.68,6.87,1.4Z"/>
      <path class="cls-1" d="M65.77,35.84h3.53v13.01s-.08.09-.09.09h-3.39v-7.01l-3.22,5.09c-.11.17-.4.18-.52,0l-3.16-5.04v6.95h-3.47v-13.09h3.44l3.34,5.41.13.1,3.39-5.5Z"/>
      <path class="cls-2" d="M.06,48.94v-7.53h8.36c1.42-.34,1.34-2.23-.12-2.43H.06v-3.13c2.75.14,5.7-.19,8.43,0,3.31.23,5,4.02,2.81,6.57,2.22,2.54.47,6.28-2.81,6.52-2.72.2-5.68-.15-8.42,0ZM2.89,46.21h5.47c.08,0,.48-.18.57-.24.79-.52.64-1.76-.23-2.13-.06-.03-.36-.12-.4-.12H2.89v2.49Z"/>
      <path class="cls-1" d="M41.86,41.46c0,1.02.06,2.02-.19,3.02-1.68,6.84-13.33,5.56-13.24-2.18.07-6.2,8.22-8.71,12.02-4.26.11.13.51.61.43.75l-2.64,1.44c-.22.06-.34-.24-.51-.4-1.3-1.15-3.61-1.16-4.89.03-1.59,1.47-1.37,4.34.5,5.46,1.53.91,4.34.78,5.11-1.09h-3.13v-2.78h6.54Z"/>
      <path class="cls-1" d="M92.35,48.94h-3.68l-2.43-4.23h-1.19v4.23h-3.47v-13.09h6.11c.63,0,1.78.51,2.31.88,2.42,1.72,2.57,5.06.24,6.94-.13.1-.61.37-.6.48l2.71,4.79ZM85.05,41.87h2.17c.3,0,.75-.34.92-.58.46-.65.33-1.68-.35-2.13-.12-.08-.51-.24-.63-.24h-2.11v2.95Z"/>
      <polygon class="cls-1" points="54.54 48.94 51.04 48.94 47.97 39.78 45.13 48.94 41.4 48.94 45.72 35.84 50.11 35.9 54.54 48.94"/>
      <path class="cls-1" d="M102.54,45.63c-.13,1.94-2.06,3.01-3.8,3.24-2.53.33-5.46-.49-6.39-3.09l2.86-1.54c.53,1.29,1.96,1.88,3.29,1.55.93-.23,1.04-1.04.2-1.5-1.57-.87-3.51-.69-4.96-2.22-1.1-1.16-1.06-3.25-.16-4.51,2.01-2.81,7.44-2.09,8.67,1.17l-2.7,1.5c-.18.05-.27-.35-.4-.51-.5-.67-1.2-.9-2.02-.81-1.03.1-1.21,1.1-.23,1.61,1.87.97,5.45,1.03,5.64,3.83.03.37.03.9,0,1.27Z"/>
      <polygon class="cls-2" points="80.59 40.94 80.59 43.72 73.42 43.72 73.42 46.16 80.59 46.16 80.59 48.94 70.58 48.94 70.61 40.94 80.59 40.94"/>
      <path class="cls-2" d="M23.51,41v2.69s-.08.09-.09.09h-7.03v2.38h7.03s.09.08.09.09v2.69h-9.96v-7.94h9.96Z"/>
      <rect class="cls-8" x="70.58" y="35.84" width="10.02" height="3.13"/>
      <rect class="cls-6" x="13.55" y="35.84" width="9.96" height="3.13"/>
    </g>
  </g>
</svg>