<?xml version="1.0" encoding="UTF-8"?>
<svg id="Capa_2" data-name="Capa 2" xmlns="http://www.w3.org/2000/svg" viewBox="0 0 132.38 55.12">
  <g id="Capa_1-2" data-name="Capa 1">
    <g>
      <path d="M45.58,55.12h-13.57c10.51-2.25,18.52-10.3,21.88-20.31l1.21-4.35v14.45c0,.64-.68,2.79-.98,3.47-1.57,3.63-4.82,5.76-8.55,6.74Z"/>
      <path d="M0,9.43C1.01,6.23,2.45,3.55,5.41,1.79c1.05-.63,3.44-1.66,4.62-1.66h11.65l-3.85,1.32C10.58,4.36,3.63,12.04,1.21,19.43c-.47,1.43-.64,2.96-1.21,4.35v-14.35Z"/>
      <path d="M21.48,55.12h-12.16c-1.3-.53-2.54-.86-3.78-1.58-3.04-1.76-4.51-4.46-5.54-7.72v-12.74c.63,1.76.96,3.61,1.62,5.36,3.25,8.66,10.95,14.6,19.86,16.67Z"/>
      <path d="M45.08.13c4.79.51,10.03,5.45,10.03,10.41v12.03l-1.65-4.72c-2.69-5.02-6.81-8.4-12.79-6.35-5.27,1.81-8.63,8.06-11.09,12.69l-.42-.13c-.5-1.33-2.51-.59-3.41.04-2.95,2.06-3.66,6.92-7.63,7.35-2.5.27-2.4-2.46-1.56-2.78,1.13-.43,2.45-.45,3.76-1.1,4-2,2.59-5.43-1.8-3.82-1.78.65-3.94,2.94-4.27,4.84-.87,5.04,5.43,4.19,7.65,1.47-.06.76.01,1.59.73,2,1.64.92,3.3-1.36,3.72-.99.61,2.82,3.88.05,5.06-1.01,1.04,3.5,5.3,2.22,7.39.4,1.51,3.13,6.93,1.95,6.3-1.63-.23-1.28-1.84-3.19-1.23-4.44.28-.56,1.89-.59,2.13-.1s-1.16.33-1.38,1.05c-.63,2.04,2.29,1.69,2.57.11.48-2.72-5.98-3.38-5.19,1.21.16.95,1.09,2.17,1.1,3.11.05,2.64-4.37,1.85-3.43-.29.17-.39,2.08-2.29,1.67-2.68-2.28-.27-2.12,1.79-2.83,2.94-1.26,2.02-6.72,2.79-4.84-1.09,1.77.14,7.74-2.34,5.94-4.68-1.16-1.51-4.44-.17-5.66.81-2.54,2.02-1.92,4.92-4.89,6.24-.16.07-1.07.53-.89-.07,2.82-4.37,4.82-9.68,7.69-13.96,7.53-11.23,17.47-1.86,18.24,8.09,1.08,13.95-9.98,27.99-24.21,29.01C2.34,56.07-9.74,21.15,12.79,5.31,21.83-1.06,34.67-.49,42.95,6.9c.5.45,2.46,2.75,2.63,2.83,1.32.61,1.51-.62.81-1.62-1.76-2.5-5.88-5.3-8.72-6.47l-4.86-1.52c3.91.3,8.42-.41,12.26,0ZM12.56,26.61c1.63-.03,3.22-.53,2.83-2.52-.33-1.7-3.44-.12-4.15.7-.2,0-.53-1.83-1.72-1.11-.37.23-3.84,6.72-3.83,7.28.01.75.86,1.26,1.56,1.07,1.69-2.65,2.8-6.71,6.11-7.65l-.81,2.22Z"/>
      <path d="M99.68,3.97h2.23s.65,4.51.65,4.51l.47,1.55.91-6.07h2.23v9.7h-1.42v-6.27c-.3.12-.32,1.01-.37,1.35-.26,1.63-.52,3.28-.64,4.92h-1.62s-1.01-5.86-1.01-5.86v5.86h-1.42V3.97Z"/>
      <path d="M96.54,15.7c2.49.41,2.56,4.43.91,5.76,1.79,1.33.58,3.71,1.21,5.56l-1.79-.03c-.79-1.62.9-4.71-1.85-4.62v4.65h-1.82v-11.32c1.03.12,2.36-.16,3.34,0ZM95.02,20.75c1.84.34,1.8-1.11,1.63-2.54-.11-.93-.84-.91-1.63-.9v3.44Z"/>
      <path d="M118.22,15.7c2.43.4,2.58,4.45.91,5.76,1.79,1.33.58,3.71,1.21,5.56l-1.79-.03c-.79-1.62.9-4.71-1.85-4.62v4.65h-1.82v-11.32c1.03.12,2.36-.16,3.34,0ZM116.7,20.75c1.84.34,1.8-1.11,1.63-2.54-.11-.93-.84-.91-1.63-.9v3.44Z"/>
      <path d="M59.97,27.02v-11.32h3.34c.81,0,1.79,1.08,1.99,1.86.28,1.09.3,6.33.09,7.5-.15.81-1.03,1.97-1.88,1.97h-3.55ZM61.79,25.4c1.19.02,1.71.2,1.84-1.1.08-.82.12-5.95-.05-6.45-.19-.58-1.28-.57-1.79-.54v8.09Z"/>
      <path d="M83.82,28.89c1.16-.21,2.61.03,3.14,1.22.56,1.25.53,6.94.1,8.28-.74,2.3-3.95,2.41-4.84.3-.54-1.29-.57-6.94-.11-8.27.27-.78.9-1.37,1.72-1.52ZM85.24,38.29c.23-.23.23-.74.26-1.05.11-1.32.17-4.62-.02-5.86-.14-.93-1.06-1.36-1.59-.6-.34.48-.35,6.93-.03,7.43.24.38,1.08.4,1.39.09Z"/>
      <path d="M109.95,15.74c1.61-.36,3.41.06,3.69,1.89.18,1.14.17,6.74-.07,7.78-.59,2.49-4.8,2.22-5.17-.13-.2-1.24-.2-6.62,0-7.86.1-.65.91-1.54,1.55-1.69ZM111.83,25.1v-7.48c-.6-.58-1.58-.47-1.78.45-.16.76-.16,6.07.05,6.74.31,1,1.54.92,1.73.29Z"/>
      <path d="M72.73,39.96v-10.92h3.75c.54,0,1.42,1.37,1.51,1.93.21,1.34.15,5.04.02,6.46-.05.55-.18,1.27-.52,1.71-.15.19-1.08.81-1.21.81h-3.55ZM74.35,38.34l1.49-.03.3-.3-.07-7.15c-.29-.5-1.72-.53-1.72-.1v7.58Z"/>
      <path d="M68.07,29.04v9c0,.64,1.82.67,1.82-.2v-8.79h1.62v9c0,.05-.36.85-.44.98-1.29,2.14-4.83,1.04-4.83-1.18v-8.79h1.82Z"/>
      <path d="M113.63,29.07l1.85,10.89h-1.81s-.21-2.02-.21-2.02h-2.11s-.32,2.02-.32,2.02h-1.62s1.62-10.92,1.62-10.92l2.61.03ZM113.05,36.52c.17-.17-.35-3.37-.44-3.91-.05-.28-.06-1.1-.37-1.14l-.81,5.05h1.62Z"/>
      <path d="M63.8,29.06l1.64,10.9-1.6-.02-.41-1.91-1.92-.1-.32,2.03h-1.62s1.62-10.92,1.62-10.92l2.61.02ZM63.21,36.52l-.71-4.85c-.61,1.49-.57,3.28-.91,4.85h1.62Z"/>
      <path d="M92.18,19.54h-1.83c.64-2.11-1.61-3.44-1.83-.92-.08.9-.1,6.02.23,6.46s.87.37,1.37.29l.23-2.6h1.83c.07,1.19-.02,3.3-1.14,4.02-1.31.84-3.35.48-4-1.01-.5-1.12-.46-5.96-.32-7.36.46-4.58,6.32-3.27,5.47,1.11Z"/>
      <path d="M105.15,29.04v8.79c0,.97,1.82.81,1.82.2v-9h1.62v9.4c0,.13-.62,1.06-.81,1.21-.88.67-2.56.67-3.44,0-.19-.15-.81-1.08-.81-1.21v-9.4h1.62Z"/>
      <path d="M107.17,13.67V3.97h3.14c1.74,0,2.13,3.7.71,4.55,1.61.67,1.19,5.16-.31,5.16h-3.55ZM108.8,8.01l1.32-.4-.09-2.14-1.23-.09v2.63ZM108.8,12.26l1.53-.19c.11-.64.32-2.24-.32-2.54l-1.22-.1v2.83Z"/>
      <path d="M85.9,18.73h-1.61c.21-1.87-2.07-1.97-1.83-.12.21,1.59,2.78,2.73,3.28,4.42,1.54,5.2-5.77,5.72-5.11.55h1.62s.3,1.62.3,1.62c.27.29,1.22.32,1.44,0,.77-2.41-2.17-3.25-2.99-5.13-2.15-4.94,5.17-6.4,4.9-1.35Z"/>
      <path d="M132.3,18.73h-1.83s-.19-1.33-.19-1.33l-1.25.03c-1.01,2.49,1.92,3.27,2.83,5.07,2.59,5.15-5.51,6.84-4.83,1.08h1.62s.34,1.83.34,1.83l1.26-.04c1.07-2.49-2.14-3.45-2.91-5.43-1.93-5.03,5.06-6.06,4.96-1.21Z"/>
      <polygon points="121.15 3.97 123.15 4 124.8 9.43 124.8 3.97 126.02 3.97 126.02 13.67 124.4 13.67 122.57 7.2 122.57 13.67 121.15 13.67 121.15 3.97"/>
      <path d="M89.75,29.04l1.11,8.29,1.32-8.29h1.62s-1.63,10.9-1.63,10.9l-2.63-.12-1.62-10.48c0-.63,1.38-.17,1.83-.31Z"/>
      <path d="M71.31,15.7v1.62s-2.71.03-2.71.03c-.59.19-.32,2.43-.24,3.02l2.34.19v1.62s-2.43,0-2.43,0v3.23h3.04v1.62h-4.86v-11.32h4.86Z"/>
      <polygon points="126.22 15.7 126.22 17.31 123.18 17.31 123.18 20.55 125.61 20.66 125.61 22.17 123.18 22.17 123.18 25.4 126.22 25.4 126.22 27.02 121.36 27.02 121.36 15.7 126.22 15.7"/>
      <polygon points="79.82 15.7 79.82 17.31 76.78 17.31 76.78 20.55 79.22 20.66 79.22 22.17 76.78 22.17 76.78 25.4 79.82 25.4 79.82 27.02 74.96 27.02 74.96 15.7 79.82 15.7"/>
      <path d="M132.3,31.87h-1.61c.25-1.75-1.89-1.98-1.82-.32.07,1.78,2.76,2.87,3.28,4.63,1.45,4.89-5.53,5.54-5.11.55h1.83c0,.73-.2,1.63.72,1.83.88.08.99-.86.91-1.53-.21-1.77-3.09-2.47-3.26-5.04-.3-4.49,5.41-4.12,5.07-.11Z"/>
      <path d="M63.11,3.97c1.86.37,2.1,4.12.51,4.95.32.26,1.01,1.03,1.01,1.42v3.34l-1.53-.19c-.43-1.39.79-3.95-1.51-3.65v3.84h-1.62V3.97c.94.13,2.27-.17,3.14,0ZM61.59,5.39v3.03c2.01.43,2.06-3.56,0-3.03Z"/>
      <path d="M102.52,31.87h-1.62c.1-2.26-2.35-1.88-1.51.6.35,1.04,2.27,1.99,2.83,3.24,2.28,5.08-5.47,6.39-4.76,1.01h1.62c-.63,2.02,1.86,2.51,1.79.71-.09-2.29-3.87-2.87-3.39-6.45s5.68-2.61,5.05.89Z"/>
      <path d="M70.71,13.67V3.97h3.14c.07,0,1.01.57,1.12.7.31.38.36.94.41,1.41.12,1.31.17,4.84-.02,6.06-.08.49-.87,1.53-1.31,1.53h-3.34ZM72.33,12.26c.56.02,1.38.12,1.58-.55.15-.52.13-4.96,0-5.57-.19-.9-.79-.79-1.58-.75v6.87Z"/>
      <polygon points="126.42 29.04 126.42 30.45 123.38 30.45 123.38 33.69 125.82 33.8 125.81 35.1 123.38 35.1 123.38 38.34 126.23 38.43 126.42 39.96 121.56 39.96 121.56 29.04 126.42 29.04"/>
      <path d="M87.86,4.44c.17.18.32.46.41.7.41,1.11.43,5.52.22,6.76-.45,2.69-4.28,2.51-4.6.24-.15-1.05-.18-5.88.03-6.82.34-1.53,3-1.84,3.94-.88ZM85.55,5.43c-.41.43-.41,6.37.05,6.83.33.33.86.27,1.14-.09.26-.33.31-6.22.09-6.59s-.96-.47-1.27-.15Z"/>
      <path d="M94.68,4.44c.94-.96,3.59-.65,3.94.88.17.77.17,6.22,0,6.99-.39,1.74-3.22,2.12-4.18.62-.61-.94-.56-5.36-.43-6.64.06-.58.26-1.43.68-1.85ZM96.99,5.43c-.31-.32-1.05-.21-1.27.15-.16.26-.2,5.59-.09,6.16.12.64.83,1.01,1.32.51.46-.46.46-6.4.05-6.83Z"/>
      <path d="M130.67,3.97l1.42,9.7h-1.62s-.19-1.53-.19-1.53l-1.72-.1-.33,1.62h-1.41s1.42-9.69,1.42-9.69h2.43ZM130.07,10.64c.13-.13-.35-3.23-.47-3.68-.05-.2-.06-.61-.34-.56l-.61,4.24h1.42Z"/>
      <path d="M120.54,13.67h-1.61s-.33-1.63-.33-1.63l-1.72.1-.19,1.53h-1.42s1.43-9.69,1.43-9.69c.54.07,2.2-.28,2.39.32l1.45,9.37ZM118.52,10.64l-.71-4.04c-.36.44-.86,3.9-.71,4.04h1.42Z"/>
      <path d="M80.03,11.96c.03.1.41.44.55.47,1.36.33.68-1.4.9-2.06l.3-.3,1.29-.03c.13,1.65-.07,3.74-2.14,3.85-1.43.08-2.36-.72-2.52-2.13-.15-1.28-.16-4.59,0-5.87.41-3.42,5.61-2.3,4.67,1.32h-1.62c-.05-.42.17-1.48-.19-1.73-.3-.21-1.23-.08-1.23.22,0,1.3-.26,5.36,0,6.27Z"/>
      <path d="M107.58,15.7v1.62s-1.82,0-1.82,0v9.7h-1.62v-9.4c-.27-.59-1.89-.16-2.03-.3l.03-1.28.27-.33h5.17Z"/>
      <polygon points="69.69 3.97 69.69 5.39 67.06 5.38 67.06 8.01 69.1 8.1 69.29 9.43 67.06 9.43 67.06 12.26 69.69 12.26 69.69 13.67 65.64 13.67 65.64 3.97 69.69 3.97"/>
      <polygon points="117.91 29.04 117.91 38.34 120.75 38.34 120.75 39.96 116.29 39.96 116.29 29.04 117.91 29.04"/>
      <rect x="99.68" y="15.7" width="1.82" height="11.32"/>
      <path d="M80.84,28.84v11.12h-1.82v-10.82c.43-.53,1.21-.25,1.82-.3Z"/>
      <rect x="94.61" y="29.04" width="1.82" height="10.92"/>
      <path d="M59.97,42.79c1.81-.02,3.75-.36,4.03,1.94.12.99-.01,2.35-.99,2.81,1.58,1.08.68,2.84,1.21,4.35h-1s-.4-3.56-.4-3.56c-.39-.5-1.46-.22-2.05-.28v3.84h-.81v-9.1ZM60.78,47.23c2.5.32,2.45-1.26,2.13-3.24-.57-.56-1.41-.39-2.13-.4v3.64Z"/>
      <path d="M69.29,51.88v-9.1c1.95-.03,3.83-.35,4.06,2.11.09.97.12,5.23-.16,5.92-.6,1.48-2.64,1-3.9,1.06ZM70.1,51.07c.91-.02,2.01.3,2.34-.8.19-.62.2-5.28,0-5.88-.32-.98-1.55-.81-2.34-.8v7.48Z"/>
      <polygon points="90.97 3.97 90.97 12.26 93.41 12.35 93.6 13.67 89.55 13.67 89.55 3.97 90.97 3.97"/>
      <path d="M93.8,50.37c-.37,2.05-3.83,2.53-4.06-.8-.08-1.15-.16-5.14.33-5.96,1.27-2.14,4.52-.2,3.73,2.21h-.81c.62-1.66-1.55-3.29-2.28-1.57-.26.63-.26,4.65-.16,5.51.12,1.05.84,1.65,1.9,1.28.74-.25.5-2.56.53-3.21h-1.22s0-.81,0-.81h2.03c-.12,1.01.17,2.38,0,3.33Z"/>
      <path d="M98.46,46.02h-.81c.19-1.65-.13-3.15-2.04-2.09-.26.41-.31,6.27-.09,6.74.26.52,1.45.57,1.83.21l.3-2.43h.81c-.06.62.09,1.34,0,1.93-.24,1.8-2.84,2.25-3.7.64-.51-.97-.5-4.89-.37-6.1.41-3.68,4.97-2.33,4.05,1.11Z"/>
      <rect x="112.85" y="3.97" width="1.62" height="9.7"/>
      <path d="M89.14,45.41h-.8c.28-2.15-2.37-2.57-2.46-.5s3.27,2.44,3.27,4.85c0,3.31-4.92,2.75-4.07-.71h.81c-.02.54-.1,1.77.54,1.99,1.01.28,1.87-.18,1.86-1.28-.01-2.02-3.29-2.14-3.23-4.85.08-3.21,4.48-2.73,4.07.5Z"/>
      <path d="M82.46,45.41h-.81c.28-2.81-3.25-2.34-2.08.55.43,1.06,2.5,1.43,2.84,3.03.84,4.04-4.62,3.91-4,.05h.81c-.2,1.49.65,2.57,2.13,1.82,1.44-2.6-1.97-3.04-2.69-4.81-1.53-3.79,4.17-4.79,3.79-.65Z"/>
      <path d="M28.29,24.21l.46.31c.35,1.24-2.91,6.61-4.54,6.95-1.05-.21.59-3.28.87-3.78.77-1.34,1.86-2.67,3.21-3.48Z"/>
      <polygon points="68.48 42.79 68.48 43.59 65.64 43.59 65.64 46.83 68.07 46.83 68.07 47.54 65.64 47.64 65.64 51.07 68.48 51.07 68.48 51.88 64.83 51.88 64.83 42.79 68.48 42.79"/>
      <path d="M77.8,42.79v.81h-2.84v3.23l2.1.03c1.27,1.25-1.35.65-2.1.78v3.44h2.84v.81h-3.65v-9.1h3.65Z"/>
      <path d="M20.66,23.99c-.07,1.81-1.98,3.91-3.85,3.84.95-1.41,1.94-3.75,3.85-3.84Z"/>
      <path d="M37.88,23.99c-.07,1.81-1.98,3.91-3.85,3.84.25-.74,3.04-4.64,3.85-3.84Z"/>
    </g>
  </g>
</svg>