<?xml version="1.0" encoding="UTF-8"?>
<svg id="Capa_2" data-name="Capa 2" xmlns="http://www.w3.org/2000/svg" viewBox="0 0 145 60.25">
  <defs>
    <style>
      .cls-1 {
        fill: #88182c;
      }

      .cls-2 {
        fill: #8c2033;
      }

      .cls-3 {
        fill: #8a1d30;
      }

      .cls-4 {
        fill: #88192d;
      }

      .cls-5 {
        fill: #8b1f32;
      }

      .cls-6 {
        fill: #87172b;
      }

      .cls-7 {
        fill: #8e2538;
      }

      .cls-8 {
        fill: #8c2134;
      }

      .cls-9 {
        fill: #8a1e31;
      }

      .cls-10 {
        fill: #8a1c2f;
      }

      .cls-11 {
        fill: #8c2235;
      }

      .cls-12 {
        fill: #891b2e;
      }
    </style>
  </defs>
  <g id="Capa_1-2" data-name="Capa 1">
    <g>
      <path class="cls-6" d="M49.95,0c4.02,1.06,7.67,3.48,9.36,7.38.38.87,1.07,3.17,1.07,4.03v13.18l-1.81-5.17c-2.95-5.5-7.46-9.2-14.01-6.96-5.78,1.98-9.45,8.84-12.16,13.9-.64.19-.42-.55-.88-.78-.97-.47-2.49.1-3.32.68-3.23,2.26-4,7.58-8.36,8.06-2.74.3-2.63-2.7-1.71-3.05,1.24-.48,2.69-.49,4.12-1.21,4.38-2.2,2.84-5.95-1.98-4.19-1.95.71-4.32,3.23-4.68,5.3-.95,5.52,5.95,4.59,8.38,1.61-.07.83.01,1.74.8,2.19,1.79,1.01,3.62-1.49,4.08-1.08.05.05,0,.91.67,1.21,1.52.69,3.79-1.42,4.88-2.32,1.14,3.84,5.8,2.43,8.1.44,1.65,3.43,7.59,2.13,6.9-1.78-.25-1.4-2.02-3.5-1.34-4.87.3-.62,2.07-.65,2.33-.11s-1.27.36-1.51,1.15c-.77,2.48,3.16,1.71,2.81-.43s-3.85-2.25-5.07-.95c-2.29,2.45,2.1,6.27-.05,7.72-1.38.93-3.87-.04-3.11-1.78.19-.43,2.28-2.51,1.83-2.94-2.5-.29-2.32,1.96-3.1,3.22-.94,1.52-5.68,3.02-5.75.45-.06-2.02,1.02-1.58,2.41-2.01,1.6-.49,6.32-2.46,4.55-4.76-1.27-1.65-4.86-.18-6.21.89-2.78,2.21-2.1,5.39-5.36,6.84-.18.08-1.17.58-.97-.08,3.09-4.79,5.29-10.61,8.43-15.29,8.25-12.31,19.14-2.04,19.98,8.87,1.18,15.28-10.94,30.67-26.53,31.78C2.56,61.29-10.68,23.04,14.01,5.67,23.92-1.3,37.99-.68,47.06,7.42c.55.49,2.69,3.01,2.88,3.1.85.39,1.43.09,1.33-.86-.14-1.31-4.56-4.94-5.79-5.76-2.9-1.92-6.19-3.01-9.52-3.9h13.98ZM13.76,29.02c1.79-.03,3.53-.59,3.1-2.76-.36-1.86-3.77-.13-4.55.76-.22,0-.58-2.01-1.89-1.21-.41.25-4.21,7.36-4.19,7.98.01.76,1.1,1.53,1.71,1.17.27-.16,2.5-4.67,3.06-5.48.83-1.19,2.15-2.7,3.64-2.9l-.89,2.43Z"/>
      <path class="cls-1" d="M23.75,0c-1.34.64-2.84.89-4.21,1.44C11.59,4.64,3.98,13.04,1.32,21.15c-.52,1.57-.7,3.24-1.32,4.77v-15.73C1.13,6.62,2.74,3.67,6.07,1.73c1.36-.79,2.72-1.16,4.14-1.73h13.54Z"/>
      <path class="cls-1" d="M0,36.11c.72,1.92,1.05,3.95,1.77,5.88,2.94,7.82,9.47,13.97,17.27,16.88l4.49,1.38h-12.54c-1.29,0-3.91-1.13-5.06-1.82-3.24-1.94-4.82-4.87-5.93-8.37v-13.96Z"/>
      <path class="cls-4" d="M35.07,60.25l5.32-1.66c8.97-3.61,15.59-11.57,18.65-20.59l1.33-4.77v15.84c0,4.88-6.07,11.19-10.99,11.19h-14.32Z"/>
      <path class="cls-9" d="M109.22,4.21c.4.07,2.35-.09,2.44,0,.17.18.45,4.3.71,4.94l.51,1.7,1-6.65h2.44v10.63h-1.55v-6.87c-.33.14-.35,1.11-.41,1.48-.29,1.78-.57,3.59-.7,5.39h-1.77s-1.11-6.42-1.11-6.42v6.42h-1.55V4.21Z"/>
      <path class="cls-9" d="M105.77,17.06c2.25.37,2.39,2.89,2.06,4.71-.16.86-1.05,1.51-1.05,1.6,0,.08.61.54.76.79.82,1.46-.03,3.71.57,5.3-1.32-.13-2.07.59-2.22-.99-.16-1.71.81-4.21-1.78-4.1v5.09h-2v-12.4c1.12.13,2.59-.18,3.66,0ZM104.11,22.59c2.01.38,1.97-1.21,1.79-2.78-.12-1.02-.92-1-1.79-.98v3.77Z"/>
      <path class="cls-10" d="M65.71,29.46v-12.4h3.66c.89,0,1.96,1.18,2.18,2.03.31,1.19.33,6.94.1,8.21-.16.88-1.12,2.16-2.06,2.16h-3.88ZM67.7,27.69c1.3.03,1.87.22,2.01-1.21.09-.89.13-6.52-.05-7.06-.21-.63-1.4-.63-1.96-.59v8.86Z"/>
      <path class="cls-9" d="M129.53,17.06c2.23.37,2.44,3.1,2.01,4.89-.17.72-1.01,1.34-1.01,1.42,0,.08.61.54.76.79.82,1.46-.03,3.71.57,5.3-1.32-.13-2.07.59-2.22-.99-.16-1.71.81-4.21-1.78-4.1v5.09h-2v-12.4c1.13.13,2.59-.18,3.66,0ZM127.86,22.59c2.01.38,1.97-1.21,1.79-2.78-.12-1.02-.92-1-1.79-.98v3.77Z"/>
      <path class="cls-10" d="M91.84,31.51c1.27-.23,2.86.04,3.44,1.33.61,1.36.58,7.6.11,9.07-.81,2.52-4.33,2.64-5.31.33-.6-1.41-.62-7.6-.12-9.07.29-.85.99-1.5,1.88-1.67ZM93.4,41.81c.25-.25.25-.81.28-1.15.12-1.44.19-5.06-.02-6.42-.16-1.01-1.16-1.49-1.74-.66-.37.52-.39,7.59-.03,8.14.26.41,1.18.44,1.52.09Z"/>
      <path class="cls-10" d="M120.47,17.1c1.76-.4,3.74.07,4.05,2.07.19,1.25.19,7.39-.08,8.53-.65,2.73-5.25,2.43-5.66-.14-.22-1.36-.22-7.25,0-8.61.11-.71,1-1.69,1.7-1.85ZM122.53,27.36v-8.2c0-.35-1.66-.82-1.95.49-.18.84-.17,6.66.05,7.38.34,1.1,1.69,1,1.9.32Z"/>
      <path class="cls-12" d="M79.69,43.64v-11.96h4.11c.6,0,1.56,1.51,1.65,2.12.23,1.46.16,5.52.02,7.08-.05.6-.2,1.39-.57,1.87-.16.21-1.19.89-1.33.89h-3.88ZM81.47,41.87c.54-.07,1.76.25,1.97-.36.16-.5.14-6.47.04-7.29-.16-1.36-2.01-1.07-2.01-.65v8.31Z"/>
      <path class="cls-9" d="M74.59,31.68v9.86c0,.7,2,.73,2-.22v-9.64h1.78v9.86c0,.06-.39.93-.48,1.07-1.41,2.35-5.29,1.14-5.29-1.3v-9.64h2Z"/>
      <path class="cls-10" d="M124.5,31.71c.51.32,1.48,10.55,2.03,11.93-.37-.07-1.86.11-1.99-.01-.18-.17-.16-2.12-.23-2.2-.08-.09-1.93.07-2.32,0-.25.04-.27,2.14-.35,2.22s-1.44-.05-1.77,0l1.78-11.96c.58.12,2.51-.18,2.86.03ZM123.87,39.87c.18-.18-.38-3.69-.48-4.28-.05-.31-.06-1.2-.41-1.25l-.89,5.53h1.78Z"/>
      <path class="cls-10" d="M69.9,31.7l1.8,11.94c-.38-.07-1.58.12-1.75-.03-.65-.55.9-2.8-2.56-2.2-.37.32-.27,2.15-.35,2.23-.07.07-1.45-.05-1.78,0l1.78-11.96,2.86.02ZM69.26,39.87l-.78-5.32c-.66,1.63-.63,3.59-1,5.31h1.78Z"/>
      <path class="cls-2" d="M101,21.27c-.35-.06-1.92.08-2,0-.22-.22.61-2.46-1-2.46-.9,0-.95.76-1.01,1.45-.09.99-.1,6.59.25,7.08.27.38,1.16.53,1.51.32.38-.23.23-2.32.25-2.85h2c.07,1.3-.02,3.61-1.25,4.4-1.44.92-3.67.52-4.39-1.1-.54-1.23-.51-6.53-.35-8.06.51-5.02,6.93-3.58,5.99,1.22Z"/>
      <path class="cls-4" d="M115.21,31.68v9.64c0,1.06,2,.88,2,.22v-9.86h1.78v10.3c0,.14-.68,1.16-.89,1.32-.96.74-2.8.74-3.76,0-.21-.16-.89-1.18-.89-1.32v-10.3h1.78Z"/>
      <path class="cls-8" d="M117.43,14.84V4.21h3.44c1.65,0,1.89,2.62,1.62,3.83-.12.54-.84,1.08-.84,1.15,0,.08.61.54.76.79.65,1.15.44,4.86-1.09,4.86h-3.88ZM119.21,8.64c2.19.41,2.31-3.57,0-2.88v2.88ZM119.2,13.29c1.8.2,1.96-.19,1.79-1.9-.13-1.28-.54-1.26-1.79-1.2v3.1Z"/>
      <path class="cls-9" d="M94.12,20.38c-.34-.06-1.66.1-1.77-.01-.08-.08.07-1.29-.6-1.51-1.02-.33-1.52.43-1.4,1.39.23,1.74,3.04,2.99,3.59,4.85,1.69,5.7-6.33,6.27-5.6.6.33.05,1.71-.07,1.78,0,.12.12-.31,1.8.78,2,1.22.23,1.33-.41,1.22-1.45-.2-1.98-3.79-3.01-3.8-6.2,0-4.34,6.4-4.01,5.79.33Z"/>
      <path class="cls-9" d="M144.96,20.38c-.35-.05-1.93.08-2,0-.09-.1.2-1.18-.21-1.45-.97-.67-1.61.1-1.59,1.12.05,2.47,4.06,3.13,3.8,6.86-.31,4.34-6.85,3.23-5.78-1.21.33.05,1.71-.07,1.78,0s-.15,1.88.37,2c1.15.26,1.71-.02,1.64-1.22-.13-2.32-3.95-3.13-3.8-6.65.18-4.27,6.24-3.55,5.79.56Z"/>
      <path class="cls-3" d="M132.75,4.21l2.19.03,1.81,5.95v-5.98h1.33v10.63h-1.77c-.38-1.88-.88-3.75-1.4-5.59-.12-.41-.25-1.3-.6-1.5v7.09h-1.55V4.21Z"/>
      <path class="cls-3" d="M98.34,31.67l1.22,9.09c.57.02,1.13-8.75,1.45-9.08.08-.08,1.44.05,1.77,0-.42,1.44-1.35,11.53-1.79,11.95-.13.13-2.29-.07-2.74.03-.88-3.76-1.26-7.78-1.92-11.64,0-.69,1.51-.19,2.01-.34Z"/>
      <path class="cls-2" d="M78.14,17.06v1.77c-.8.19-3.14-.5-3.33.55-.07.38-.06,2.56.1,2.78.3.43,1.99.12,2.57.21v1.77s-2.66,0-2.66,0v3.54h3.33v1.77h-5.33v-12.4h5.33Z"/>
      <polygon class="cls-10" points="87.46 17.06 87.46 18.83 84.13 18.83 84.13 22.37 86.8 22.5 86.8 24.15 84.13 24.14 84.13 27.69 87.46 27.69 87.46 29.46 82.13 29.46 82.13 17.06 87.46 17.06"/>
      <polygon class="cls-5" points="138.3 17.06 138.3 18.83 134.97 18.83 134.97 22.37 137.63 22.5 137.63 24.15 134.97 24.14 134.97 27.69 138.3 27.69 138.3 29.46 132.97 29.46 132.97 17.06 138.3 17.06"/>
      <path class="cls-3" d="M144.96,34.78c-.34-.06-1.66.1-1.77-.01-.08-.08.07-1.29-.6-1.51-.86-.28-1.43.32-1.4,1.17.08,1.95,3.02,3.15,3.59,5.07,1.59,5.36-6.06,6.07-5.6.6.35.05,1.92-.08,2,0,.13.13-.4,1.9.79,2,.97.09,1.09-.94,1-1.68-.23-1.94-3.38-2.71-3.57-5.52-.33-4.92,5.93-4.51,5.56-.12Z"/>
      <path class="cls-5" d="M69.15,4.21c1.86.37,2.1,3.65,1.2,4.97-.18.26-.68.36-.64.46.11.28,1.11.94,1.11,1.55v3.65c-3.73.83.09-4.57-3.33-4.21v4.21h-1.78V4.21c1.02.14,2.49-.19,3.44,0ZM67.48,5.76v3.32c2.2.47,2.25-3.9,0-3.32Z"/>
      <path class="cls-3" d="M112.32,34.78c-.33-.05-1.71.07-1.78,0-.13-.14.36-1.56-1-1.57-1.09,0-.92,1.46-.66,2.23.39,1.14,2.48,2.18,3.1,3.55,2.5,5.57-5.99,7-5.22,1.11,2.58-.14,1.41-.02,1.82,1.4.28.97,1.97.81,1.92-.62-.1-2.51-4.24-3.15-3.72-7.07s6.22-2.86,5.53.98Z"/>
      <path class="cls-3" d="M77.47,14.84V4.21h3.44c.07,0,1.11.62,1.23.77.34.41.4,1.03.44,1.55.13,1.43.19,5.3-.02,6.64-.09.54-.96,1.67-1.43,1.67h-3.66ZM79.25,13.29c.61.02,1.52.13,1.73-.6.17-.57.14-5.44,0-6.11-.21-.98-.87-.87-1.73-.82v7.53Z"/>
      <path class="cls-5" d="M138.52,31.68v1.55h-3.33v3.54l2.67.13v1.42s-2.67,0-2.67,0v3.54c1.77.18,3.81-.86,3.33,1.77h-5.33v-11.96h5.33Z"/>
      <path class="cls-3" d="M96.26,4.73c.19.19.35.51.45.77.44,1.21.47,6.05.24,7.41-.5,2.95-4.69,2.75-5.04.26-.16-1.15-.2-6.44.03-7.47.38-1.68,3.28-2.02,4.32-.97ZM93.73,5.81c-.45.47-.45,6.98.05,7.48.36.36.95.29,1.25-.1.28-.36.34-6.82.09-7.22s-1.05-.52-1.39-.17Z"/>
      <path class="cls-3" d="M103.74,4.73c1.03-1.05,3.94-.71,4.32.97.19.84.19,6.82,0,7.66-.43,1.9-3.53,2.32-4.59.68-.67-1.03-.61-5.87-.47-7.28.06-.64.29-1.57.74-2.03ZM106.28,5.81c-.34-.35-1.15-.23-1.39.17-.17.29-.22,6.12-.1,6.75.13.7.91,1.1,1.44.56.5-.5.5-7.01.05-7.48Z"/>
      <path class="cls-9" d="M143.18,4.21l1.56,10.63c-.33-.05-1.7.08-1.78,0-.32-.33.9-2.36-2.09-1.79-.51,1.56.13,2.05-1.9,1.78l1.55-10.63h2.66ZM142.51,11.52c.14-.14-.39-3.53-.51-4.04-.06-.22-.06-.67-.38-.61l-.67,4.65h1.55Z"/>
      <path class="cls-9" d="M132.08,14.84c-.35-.06-1.65.1-1.76-.01-.1-.1-.09-1.69-.36-1.77-2.98-.58-1.77,1.46-2.09,1.79-.07.07-1.25-.05-1.56,0,.24-1.29,1.18-10.25,1.57-10.62.1-.09,2.5-.18,2.62.35l1.59,10.27ZM129.86,11.52l-.77-4.43c-.39.48-.94,4.27-.78,4.43h1.55Z"/>
      <path class="cls-8" d="M87.68,12.96c.16.55,1.27.68,1.52.3.51-.8-1.04-2.92,1.81-2.4.14,1.81-.08,4.1-2.34,4.22-1.57.08-2.59-.79-2.77-2.33-.16-1.41-.17-5.03,0-6.43.45-3.75,6.15-2.52,5.11,1.45-.33-.05-1.7.08-1.78,0-.12-.12.24-1.59-.21-1.9-.33-.23-1.35-.09-1.35.24,0,1.42-.28,5.87,0,6.87Z"/>
      <path class="cls-12" d="M117.87,17.06v1.77s-2,0-2,0v10.63h-1.78v-10.3c0-.49-1.81-.31-2.22-.33-.02-.36-.09-1.77.33-1.77h5.66Z"/>
      <path class="cls-12" d="M76.36,4.21v1.55s-2.89,0-2.89,0c.08.45-.1,2.78,0,2.88.35.35,3.09-.91,2.44,1.55h-2.44s0,3.1,0,3.1h2.89s0,1.55,0,1.55h-4.44V4.21h4.44Z"/>
      <polygon class="cls-1" points="129.19 31.68 129.19 41.87 132.3 41.87 132.3 43.64 127.42 43.64 127.42 31.68 129.19 31.68"/>
      <rect class="cls-8" x="109.22" y="17.06" width="2" height="12.4"/>
      <path class="cls-8" d="M88.57,31.45v12.18h-2v-11.85c0-.46,1.63-.33,2-.33Z"/>
      <rect class="cls-8" x="103.67" y="31.68" width="2" height="11.96"/>
      <path class="cls-11" d="M65.71,46.74c3.06-.49,5.36.73,4.23,4.11-.27.82-.93,1.03-.9,1.1.13.34.81.58,1.01,1.43.27,1.11-.15,2.29.32,3.34-.26-.04-1,.09-1.1,0-.38-.37.01-3.32-.43-3.89s-1.6-.25-2.24-.31v4.21s-.89.04-.89,0v-9.97ZM66.59,51.61c2.4.26,2.71-.87,2.45-3-.15-1.26-1.44-.96-2.45-.98v3.99Z"/>
      <path class="cls-11" d="M75.92,56.71v-9.97c2.14-.03,4.19-.38,4.45,2.31.1,1.06.13,5.73-.18,6.49-.65,1.62-2.89,1.1-4.27,1.16ZM76.81,55.82c1-.03,2.2.33,2.56-.88.21-.68.22-5.79,0-6.45-.35-1.08-1.7-.89-2.57-.87v8.2Z"/>
      <path class="cls-12" d="M99.67,4.21v9.08c1.52.13,3.28-.71,2.89,1.55h-4.44V4.21h1.55Z"/>
      <path class="cls-11" d="M102.78,55.04c-.4,2.24-4.19,2.78-4.45-.88-.09-1.27-.17-5.63.36-6.53,1.03-1.74,3.82-1.09,4.09,1.2.12,1,.18,1.42-.89,1.22.68-1.81-1.7-3.61-2.5-1.72-.29.69-.28,5.09-.17,6.04.13,1.16.92,1.8,2.08,1.4.71-.24.72-3.39.59-3.51-.07-.07-1.06.05-1.33,0-.36-1.48,1.14-.72,2.22-.89-.14,1.11.19,2.61,0,3.65Z"/>
      <path class="cls-7" d="M107.88,50.28c-1.7.52-.33-1.86-1.26-2.45-.44-.28-1.57-.3-1.87.16s-.34,6.87-.09,7.38c.37.76,2.11.79,2.32-.57.17-1.08-.53-2.17.9-1.87-.07.67.1,1.47.01,2.12-.27,1.98-3.11,2.47-4.05.7-.56-1.07-.55-5.36-.4-6.69.45-4.04,5.45-2.56,4.44,1.22Z"/>
      <rect class="cls-11" x="123.64" y="4.21" width="1.78" height="10.63"/>
      <path class="cls-7" d="M97.67,49.62c-1.32.26-.71-.52-1.16-1.39-.63-1.25-2.35-.63-2.41.84-.09,2.17,3.58,2.68,3.58,5.31,0,2.97-3.92,3.18-4.41.84-.2-.97-.33-1.93.84-1.61-.55,4.02,4.31,2.1,2-.72-.61-.75-2.09-1.24-2.62-2.32-1.96-4.03,4.4-5.78,4.17-.95Z"/>
      <path class="cls-7" d="M90.35,49.62h-.89c.31-3.08-3.56-2.57-2.27.61.47,1.16,2.74,1.56,3.11,3.32.92,4.42-5.06,4.28-4.39.06h.89c-.58,2.51,2.88,3.34,2.68.56-.15-2.06-3.67-2.35-3.58-5.09.12-3.54,5.02-2.97,4.45.55Z"/>
      <path class="cls-9" d="M31,26.39c1.33-.11-.46,3.33-.77,3.89-.45.81-2.79,4.24-3.7,4.06-1.15-.23.64-3.59.96-4.14.47-.82,2.63-3.74,3.51-3.81Z"/>
      <path class="cls-8" d="M75.03,46.74s.04.89,0,.89h-3.11v3.54c.42.07,2.57-.1,2.66,0,.03.03.02.61,0,.77-.04.25-2.29.04-2.67.11v3.77h3.11s.04.89,0,.89h-4v-9.97c.57.11,3.86-.14,4,0Z"/>
      <path class="cls-7" d="M85.24,46.74s.04.89,0,.89h-3.11v3.54c.77.13,2.83-.48,2.66.77-.03.25-2.27.05-2.66.11v3.77h3.11s.04.89,0,.89h-4v-9.97c.57.11,3.86-.14,4,0Z"/>
      <path class="cls-8" d="M22.64,26.14c-.08,1.98-2.17,4.28-4.22,4.21,1.04-1.55,2.13-4.11,4.22-4.21Z"/>
      <path class="cls-2" d="M41.51,26.14c-.08,1.98-2.17,4.28-4.22,4.21.27-.81,3.33-5.08,4.22-4.21Z"/>
    </g>
  </g>
</svg>