<?xml version="1.0" encoding="UTF-8"?>
<svg id="Capa_2" data-name="Capa 2" xmlns="http://www.w3.org/2000/svg" viewBox="0 0 108.85 42.97">
  <defs>
    <style>
      .cls-1 {
        fill: #fff;
      }
    </style>
  </defs>
  <g id="Capa_1-2" data-name="Capa 1">
    <g>
      <path class="cls-1" d="M.03,18.59c.35.08.3-.18.41-.39C5.52,8.6,19.84,6.11,29.62,8.39c7.14,1.66,10.37,5.26,10.66,12.62.01.28-.15.59.29.51-1.79,4.42-2.51,7.1-5.85,10.83-1.61.79-3.09,1.78-4.73,2.51-7.63,3.43-15.91,3.92-21.98-2.66-3.17-3.44-3.55-5.47-1.56-9.76,3.63-7.83,12.38-11.66,20.65-8.9,3.74,1.25,6.83,5.04,5.97,9.18-.42,2.02-4.98,5.52-6.93,6.1-3.33.99-8.48-.12-10.1-3.5-1.82-3.8,4.23-7.69,5.25-3.64.17.7.15,1.23-.34,1.8-.28.33-.93.53-1.01.75-.14.42.05.85.5.93.25.04,1.82-.12,2.15-.18,2.73-.49,4.24-1.96,3.47-4.86-1.26-4.69-9.6-3.15-12.05-.36s-2.97,7,.22,9.41c6.43,4.86,18.71,4.16,21.28-4.74,3.2-11.09-10.29-13.76-18.29-13.17s-12.54,7.82-14.51,14.75c-.07.24-.04.52-.34.61C.7,24,.23,21.65.03,18.59Z"/>
      <path d="M34.72,32.34c-2.36,2.64-10.47,9.27-13.66,10.42-1.65.59-2.81-.16-4.19-.99-4.31-2.61-11.76-10.83-14.5-15.13.3-.09.27-.37.34-.61,1.97-6.94,6.62-14.17,14.51-14.75s21.49,2.08,18.29,13.17c-2.57,8.9-14.85,9.61-21.28,4.74-3.19-2.41-2.64-6.65-.22-9.41s10.79-4.33,12.05.36c.78,2.9-.74,4.37-3.47,4.86-.33.06-1.9.23-2.15.18-.45-.08-.64-.51-.5-.93.08-.23.73-.43,1.01-.75.48-.57.51-1.11.34-1.8-1.01-4.05-7.06-.16-5.25,3.64,1.62,3.38,6.77,4.49,10.1,3.5,1.94-.58,6.51-4.08,6.93-6.1.85-4.14-2.23-7.93-5.97-9.18-8.27-2.77-17.02,1.07-20.65,8.9-1.99,4.29-1.61,6.32,1.56,9.76,6.07,6.58,14.35,6.09,21.98,2.66,1.64-.74,3.13-1.73,4.73-2.51Z"/>
      <path d="M40.57,21.51c-.44.08-.28-.22-.29-.51-.29-7.36-3.52-10.96-10.66-12.62-9.79-2.28-24.11.21-29.18,9.81-.11.21-.06.46-.41.39C-.55,9.48,6.67,1.43,16.07,2.04c3.34.22,5.47,1.92,7.16,4.69,3.81-4.19,10.73-7.48,15.73-3.29,4.15,3.48,4.84,8.39,3.68,13.49-.43,1.87-1.42,2.98-2.07,4.59Z"/>
      <path d="M61.5,9.66c1.35-.43,1.57-.12,2.12,1.02,1.08-1.29,3.03-1.8,4.51-.85.25.16.81.88,1.03.84.14-.02.48-.5.69-.64,1.88-1.27,4.55-.8,5.48,1.38.08.19.37,1.12.37,1.24v5.85s-.2.22-.22.22h-2.49s-.26-.23-.29-.29c-.4-.85.17-4.09-.11-5.31s-2.16-1.18-2.43,0,.29,4.46-.11,5.31c-.03.07-.27.29-.29.29h-2.49s-.22-.2-.22-.22v-5.27c0-1.04-1.94-1.43-2.38-.33s.14,3.94-.11,5.3c-.03.16-.25.52-.36.52h-2.49s-.22-.2-.22-.22v-8.85Z"/>
      <path d="M69.11,39.08v-5.2c0-.08-.29-.85-.37-.95-.69-.82-2.27-.02-2.27,1.09v5.05c-.94.23-1.99.23-2.93,0v-8.85c0-.28,1.11-.27,1.36-.19.52.16.39,1.15.76.99.29-.12.8-.76,1.24-.95.84-.37,1.97-.38,2.82-.03.44.18,1.11.99,1.36.99.18,0,.87-.67,1.21-.84,1.59-.78,3.95-.44,4.83,1.23.73,1.36.82,5.59.62,7.15-.06.48-.18.6-.66.66-.45.06-2.15.11-2.35-.3-.36-.75.13-4.13-.11-5.31-.27-1.33-2.18-1.24-2.42-.15s.27,4.86-.19,5.52c-.31.44-2.35.23-2.92.08Z"/>
      <path d="M90.6,9.68l.02,9.71c-.58,3.11-2.91,4.2-5.89,3.84-.58-.07-2.65-.59-2.56-1.32.02-.15.75-1.88.83-1.94.4-.28.85.27,1.22.4,1.63.59,3.66.42,3.32-1.79-3.87,1.43-7.15-1.19-6.55-5.3.52-3.54,4.95-5.35,7.5-2.6.46-1.13.85-1.48,2.1-1ZM85.76,12.17c-2.54.3-2.22,4.26.53,3.91,2.35-.3,1.95-4.2-.53-3.91Z"/>
      <path d="M48.11,18.73c-.08-.02-.25-.22-.2-.34,2.11-4.55,4.15-9.19,6.42-13.64.25-.08.7-.22.78.11l6.25,13.51c.03.12-.16.36-.22.36h-2.78c-.13,0-.98-1.71-.97-2.03h-5.3c-.44.16-.81,2.03-1.19,2.03-.62,0-2.34.12-2.78,0ZM53.3,14.05h2.63c.08-.39-1.08-3.18-1.25-3.22-.29-.08-.21.13-.28.29-.19.41-1.3,2.73-1.11,2.93Z"/>
      <path d="M52.98,25.07c1.21-.08,3.9.54,4.71,1.49.4.47-.84,2.3-1.12,2.39-.83.28-2.85-1.97-4.2-.84-.3.25-.39.61-.29.98.46,1.66,5.53,2.22,6.02,5.12.61,3.61-2.27,5.49-5.58,5.14-.8-.08-3.51-.89-3.61-1.82-.03-.28.94-2.04,1.13-2.1.66-.21,2.49,1.8,4.05.99.4-.21.67-.71.61-1.16-.19-1.39-3.29-2.28-4.4-3.22-3.03-2.55-1.13-6.73,2.67-6.98Z"/>
      <path d="M89.23,39.22c-.23-.06-.34-.43-.37-.65-.19-1.41-.19-6.5,0-7.92.11-.87.82-.68,1.52-.62.47.03.43,1.13.76.99.17-.07.44-.5.67-.65,1.79-1.12,4.35-.77,5.36,1.2.1.19.48,1.15.48,1.27v6.15s-.2.22-.22.22h-2.49c-.18,0-.35-.6-.37-.8-.14-1.16.28-4.49-.16-5.26-.6-1.05-2.47-.46-2.47.86v4.98s-.2.22-.22.22c-.57,0-2.08.11-2.49,0Z"/>
      <path d="M95.56,9.4c6.75-.91,7.32,9.26.98,9.62-5.91.34-6.93-8.82-.98-9.62ZM96.14,12.18c-2.86.26-1.86,4.86.86,3.78,2.01-.8,1.28-3.98-.86-3.78Z"/>
      <path d="M83.26,29.77c5.99-.07,6.38,8.98.71,9.6-6.81.75-7.31-9.52-.71-9.6ZM82.83,32.67c-2.73.56-1.13,5.1,1.41,3.6,1.83-1.08.87-4.07-1.41-3.6Z"/>
      <path d="M108.31,10.12c.23.37-.48,2.05-.8,2.16-.43.14-2.91-1.11-3.12-.2-.05.22.19.3.33.4.7.45,1.83.64,2.64,1.17,2.93,1.91,1.18,5.19-2.02,5.39-.7.04-3.64-.32-3.73-1.1-.03-.27.68-1.8.88-1.91.29-.15,3.23,1.25,3.23.16,0-.55-2.35-1.21-2.92-1.62-2.37-1.68-1.38-4.89,1.53-5.18.67-.07,3.67.22,4,.75Z"/>
      <path d="M62.09,39.08c-.46.18-3.07.35-3.07-.22v-8.63s.2-.22.22-.22h2.63s.22.2.22.22v8.85Z"/>
      <path d="M79.94,18.73h-2.71s-.22-.2-.22-.22v-8.63c0-.47,2.84-.65,3.04.03l-.12,8.82Z"/>
      <path d="M78.14,4.86c2.33-.48,2.87,3.02.81,3.45-2.38.49-2.98-3-.81-3.45Z"/>
      <path d="M59.99,25.35c2.89-.66,2.88,3.5.58,3.43-2.13-.07-2.21-3.05-.58-3.43Z"/>
      <path d="M84.58,25.48c.49-.07,1.34,1.47,1.08,1.82-.41.53-3.01,1.22-3.67,1.76-.61.29-1.2-1-.96-1.4.11-.18,3.34-2.15,3.55-2.18Z"/>
      <path d="M71.01,22.68v-2.49c.17-.06.59.06.59.22v6.44c0,.47-.66-.06-.78-.05-.76.06-.98.81-2.25.15-2.59-1.34-.61-6,2.44-4.27ZM70.99,23.29c-.06-.09-1.14-.46-1.35-.45-2.27.1-2.38,4.12.27,3.78.57-.07,1.04-.33,1.12-.93.04-.27.03-2.3-.03-2.4Z"/>
      <path d="M72.92,25.03c.13,1.12.97,1.75,2.11,1.6.22-.03,1.57-.79,1.4-.06-.09.39-1.69.7-2.11.65-3.28-.36-2.05-6.2,1.27-4.64.87.41,1.57,2.45.91,2.45h-3.59ZM76.13,24.44c-.09-2.17-3.01-2.06-3.22,0h3.22Z"/>
      <path d="M66.67,6.39c-1.98-1.82.35-5.49,2.87-3.82,2.76,1.84-.33,6.15-2.87,3.82ZM68.2,2.67c-2.34.13-2.19,3.71-.04,3.78,2.62.09,2.29-3.91.04-3.78Z"/>
      <path d="M73.94,2.93c-.1.11-2.3-.7-2.21.36s1.72.92,2.35,1.76c1.26,1.66-2.29,2.89-2.93,1.1.12-.11,2.69.95,2.62-.37-.06-1.19-3.68-1.13-2.46-3.06.65-1.02,3.21-.39,2.62.2Z"/>
      <path d="M62.67,0v6.22s.2.22.22.22h3v.44h-3.66V0h.44Z"/>
    </g>
  </g>
</svg>